<svg xmlns="http://www.w3.org/2000/svg" viewBox="0 0 25 25"><defs><style>.cls-1{fill:#231f20;}</style></defs><g id="baby_bed" data-name="baby bed"><path class="cls-1" d="M24,6.5a1.5,1.5,0,1,0-2,1.41V9H3V7.91a1.5,1.5,0,1,0-1,0V23.5a.5.5,0,0,0,1,0V23H22v.5a.5.5,0,0,0,1,0V7.91A1.51,1.51,0,0,0,24,6.5ZM22,10v6.67A2.79,2.79,0,0,0,20.21,16H19V10Zm0,9H19V17h1.21A1.8,1.8,0,0,1,22,18.79Zm-7,0V17h3v2ZM7,19V17h3v2Zm-4-.21A1.8,1.8,0,0,1,4.79,17H6v2H3ZM7,16V10h3v6Zm4,1h3v2H11Zm4-1V10h3v6Zm-1-6v6H11V10ZM6,10v6H4.79A2.79,2.79,0,0,0,3,16.67V10ZM2.5,6a.5.5,0,1,1-.5.5A.5.5,0,0,1,2.5,6ZM3,22V20H22v2ZM22.5,7a.5.5,0,1,1,.5-.5A.5.5,0,0,1,22.5,7Z"/><path class="cls-1" d="M9.81,7.79A3.37,3.37,0,0,0,11.1,8a3.5,3.5,0,0,0,1.6-.39A.51.51,0,0,0,13,7.21a.53.53,0,0,0-.28-.45A3.26,3.26,0,0,1,11,4.64a3.1,3.1,0,0,1,.22-1.91.53.53,0,0,0-.07-.53.53.53,0,0,0-.5-.17A3.51,3.51,0,0,0,8.37,3.7,3,3,0,0,0,8.09,6,2.91,2.91,0,0,0,9.81,7.79Zm-.56-3.6a2.39,2.39,0,0,1,.7-.78A3.95,3.95,0,0,0,11.33,7a2.34,2.34,0,0,1-1.14-.17A2,2,0,0,1,9,5.73,1.91,1.91,0,0,1,9.25,4.19Z"/><path class="cls-1" d="M12.35,3.34l-.13.72a.51.51,0,0,0,.72.54l.65-.34.65.34a.5.5,0,0,0,.24.06.52.52,0,0,0,.29-.09.51.51,0,0,0,.2-.49l-.12-.72.53-.51a.53.53,0,0,0,.13-.51.51.51,0,0,0-.4-.35l-.73-.11-.32-.66a.51.51,0,0,0-.45-.28h0a.51.51,0,0,0-.45.28l-.33.65L12.11,2a.49.49,0,0,0-.41.33.53.53,0,0,0,.12.52Zm1.25-.77a.49.49,0,0,0,.35.26.52.52,0,0,0-.13.42.46.46,0,0,0-.22-.06.54.54,0,0,0-.22.05.51.51,0,0,0-.13-.41A.49.49,0,0,0,13.6,2.57Z"/></g></svg>