<svg xmlns="http://www.w3.org/2000/svg" viewBox="0 0 25 25"><defs><style>.cls-1{fill:#231f20;}</style></defs><g id="bathub"><path class="cls-1" d="M23.5,13H23V4.92c.16-2.33-1-3.86-2.2-3.95a2.08,2.08,0,0,0-1.56.67,2.53,2.53,0,0,0-1-.14,4.4,4.4,0,0,0-3.11,1.6.5.5,0,0,0,0,.68l3.06,3.07a.5.5,0,0,0,.36.14.49.49,0,0,0,.32-.12A4.42,4.42,0,0,0,20.5,3.76a2.38,2.38,0,0,0-.42-1.52A1.08,1.08,0,0,1,20.72,2c.62,0,1.4,1.16,1.28,2.91V13H1.5a.5.5,0,0,0,0,1H2v2a6,6,0,0,0,5,5.93A.29.29,0,0,0,7,22v1.5a.5.5,0,0,0,1,0V22h9v1.5a.5.5,0,0,0,1,0V22a.29.29,0,0,0,0-.09A6,6,0,0,0,23,16V14h.5a.5.5,0,0,0,0-1ZM18.57,5.79,16.2,3.42a3.27,3.27,0,0,1,2.07-.92,1.51,1.51,0,0,1,.88.2l.08.06a1.39,1.39,0,0,1,.27,1A3.32,3.32,0,0,1,18.57,5.79ZM22,15,7.5,15a.5.5,0,0,0-.5.5.5.5,0,0,0,.5.5h0L22,16a5,5,0,0,1-5,5H8a5,5,0,0,1-5-5V14H22Z"/></g></svg>