<svg xmlns="http://www.w3.org/2000/svg" viewBox="0 0 25 25"><defs><style>.cls-1{fill:#231f20;}</style></defs><g id="closet"><path class="cls-1" d="M17,14.5a.5.5,0,0,0-.5-.5h-1A10.11,10.11,0,0,0,16,10.9C16,7,14,4,11.5,4S7,7,7,10.9A10.16,10.16,0,0,0,7.48,14h-1a.5.5,0,0,0,0,1H7c0,.06,0,.11,0,.17v.33a4.49,4.49,0,0,0,2,3.75,5.27,5.27,0,0,1,0,1.9A5,5,0,0,1,8.24,23H6.5a.5.5,0,0,0,0,1h10a.5.5,0,0,0,0-1H14.76A5,5,0,0,1,14,21.15a5.27,5.27,0,0,1,0-1.9,4.49,4.49,0,0,0,2-3.75v-.33c0-.06,0-.11,0-.17h.53A.5.5,0,0,0,17,14.5ZM11.5,5C13.4,5,15,7.7,15,10.9a9.06,9.06,0,0,1-.47,2.94.44.44,0,0,0,0,.16h-6a.38.38,0,0,0,0-.21A9.36,9.36,0,0,1,8,10.9C8,7.7,9.6,5,11.5,5ZM13,21.35A5.89,5.89,0,0,0,13.59,23H9.41A5.89,5.89,0,0,0,10,21.35a6.56,6.56,0,0,0,.1-1.6,4.1,4.1,0,0,0,2.82,0A6.56,6.56,0,0,0,13,21.35Zm2-6.18v.33a3.5,3.5,0,0,1-7,0v-.33A.18.18,0,0,1,8.17,15h6.66A.18.18,0,0,1,15,15.17Z"/><path class="cls-1" d="M20.5,2H19V1.5a.5.5,0,0,0-.5-.5H4.5a.5.5,0,0,0-.5.5v11a.5.5,0,0,0,.5.5h1a.5.5,0,0,0,0-1H5V2H18V12h-.5a.5.5,0,0,0,0,1h1a.5.5,0,0,0,.5-.5V3h1v.5a.5.5,0,0,0,1,0v-1A.5.5,0,0,0,20.5,2Z"/></g></svg>