<svg xmlns="http://www.w3.org/2000/svg" viewBox="0 0 25 25"><defs><style>.cls-1{fill:#231f20;}</style></defs><g id="double_bed" data-name="double bed"><path class="cls-1" d="M21,12.51h0v-8a.5.5,0,0,0-1,0V5H5V4.5a.5.5,0,0,0-1,0v8H4a4.35,4.35,0,0,0-3,3.81V20.5a.5.5,0,0,0,1,0V20H23v.5a.5.5,0,0,0,1,0V16.32A4.35,4.35,0,0,0,21,12.51ZM18,12H14V11a1,1,0,0,1,1-1H17a1,1,0,0,1,1,1Zm2-6v6H19V11a2,2,0,0,0-2-2H15a2,2,0,0,0-2,2v1H12V11a2,2,0,0,0-2-2H8a2,2,0,0,0-2,2v1H5V6Zm-9,6H7V11a1,1,0,0,1,1-1H10a1,1,0,0,1,1,1ZM2,19V16.32C2,14.49,4.1,13,6.68,13H18.32C20.9,13,23,14.49,23,16.32V19Z"/></g></svg>