<svg xmlns="http://www.w3.org/2000/svg" viewBox="0 0 25 25"><defs><style>.cls-1{fill:#231f20;}</style></defs><g id="bedroom_lamp" data-name="bedroom lamp"><path class="cls-1" d="M18.19,1.44A.5.5,0,0,0,17.7,1H7.27a.51.51,0,0,0-.5.44l-1.3,11.5a.5.5,0,0,0,.5.56h4.84a2.79,2.79,0,0,1,0,.58,3.33,3.33,0,0,1-.35,1.05,2.8,2.8,0,0,1-1.31,1.16,3.67,3.67,0,0,0-2,2.39,3.61,3.61,0,0,0,1.72,3.94.85.85,0,0,1,.39.81.5.5,0,0,0,.49.57l5.52,0h0a.51.51,0,0,0,.5-.57.82.82,0,0,1,.41-.82,3.61,3.61,0,0,0,1.75-3.95,3.67,3.67,0,0,0-2-2.39,2.8,2.8,0,0,1-1.31-1.16,3.33,3.33,0,0,1-.35-1.05,2.79,2.79,0,0,1,0-.58H17v2a.5.5,0,0,0,1,0v-2h1a.48.48,0,0,0,.37-.17.5.5,0,0,0,.13-.39Zm-5,12.8a4.39,4.39,0,0,0,.45,1.35,3.72,3.72,0,0,0,1.77,1.6,2.68,2.68,0,0,1,1.47,1.73,2.61,2.61,0,0,1-1.29,2.85A1.84,1.84,0,0,0,14.75,23H10.2a1.89,1.89,0,0,0-.83-1.22,2.63,2.63,0,0,1-1.29-2.86,2.68,2.68,0,0,1,1.47-1.73,3.72,3.72,0,0,0,1.77-1.6,4.39,4.39,0,0,0,.45-1.35,4.6,4.6,0,0,0,.05-.74h1.36A4.6,4.6,0,0,0,13.23,14.24Zm.5-1.74H6.53L7.72,2h9.53l1.19,10.5Z"/></g></svg>