<svg xmlns="http://www.w3.org/2000/svg" viewBox="0 0 25 25"><defs><style>.cls-1{fill:#231f20;}</style></defs><g id="bedside_table" data-name="bedside table"><path class="cls-1" d="M20.5,1H4.5a.5.5,0,0,0,0,1H5V17.5a.5.5,0,0,0,.5.5H6v5.5a.5.5,0,0,0,.5.5h1A.5.5,0,0,0,8,23.58L8.92,18h7.16L17,23.58a.5.5,0,0,0,.49.42h1a.5.5,0,0,0,.5-.5V18h.5a.5.5,0,0,0,.5-.5V2h.5a.5.5,0,0,0,0-1ZM7.08,23H7V18h.91ZM18,23h-.08l-.83-5H18Zm.5-6H6V10H19v7ZM19,9H6V2H19Z"/><path class="cls-1" d="M7.5,8h10a.5.5,0,0,0,.5-.5v-4a.5.5,0,0,0-.5-.5H7.5a.5.5,0,0,0-.5.5v4A.5.5,0,0,0,7.5,8ZM8,4h9V7H8Z"/><path class="cls-1" d="M17.5,11H7.5a.5.5,0,0,0-.5.5v4a.5.5,0,0,0,.5.5h10a.5.5,0,0,0,.5-.5v-4A.5.5,0,0,0,17.5,11ZM17,15H8V12h9Z"/><path class="cls-1" d="M13.5,5h-2a.5.5,0,0,0,0,1h2a.5.5,0,0,0,0-1Z"/><path class="cls-1" d="M11.5,14h2a.5.5,0,0,0,0-1h-2a.5.5,0,0,0,0,1Z"/></g></svg>