<svg xmlns="http://www.w3.org/2000/svg" viewBox="0 0 25 25"><defs><style>.cls-1{fill:#231f20;}</style></defs><g id="bookshelves"><path class="cls-1" d="M21.08,1H3.92A.92.92,0,0,0,3,1.92V21.5a.5.5,0,0,0,.5.5H4v1.5a.5.5,0,0,0,.5.5h16a.5.5,0,0,0,.5-.5V22h.5a.5.5,0,0,0,.5-.5V1.92A.92.92,0,0,0,21.08,1ZM19.5,12.5a.5.5,0,0,0-.5.5v3H18V14a.5.5,0,0,0-1,0v2H16V13a.5.5,0,0,0-1,0v3H10V14a.5.5,0,0,0-1,0v2H8V13a.5.5,0,0,0-1,0v3H6V14a.5.5,0,0,0-1,0v2H4V12H21v4H20V13A.5.5,0,0,0,19.5,12.5ZM12,21H4V17h8ZM12,7h0v4H4V7Zm9,4H19V9a.5.5,0,0,0-1,0v2H17V8a.5.5,0,0,0-1,0v3H13V7h8ZM4,2H21V6H10V3A.5.5,0,0,0,9,3V6H8V4A.5.5,0,0,0,7,4V6H6V3A.5.5,0,0,0,5,3V6H4ZM20,23H5V22H20Zm1-2H13V17h8Z"/><path class="cls-1" d="M14.52,20a.5.5,0,0,0,0-1h0a.49.49,0,0,0-.49.5A.5.5,0,0,0,14.52,20Z"/><path class="cls-1" d="M10.52,20a.5.5,0,0,0,0-1h0a.49.49,0,0,0-.49.5A.5.5,0,0,0,10.52,20Z"/></g></svg>