<svg xmlns="http://www.w3.org/2000/svg" viewBox="0 0 25 25"><defs><style>.cls-1{fill:#231f20;}</style></defs><g id="bunkbed"><path class="cls-1" d="M7.5,21h-1a.5.5,0,0,0,0,1h1a.5.5,0,0,0,0-1Z"/><path class="cls-1" d="M18.5,21h-1a.5.5,0,0,0,0,1h1a.5.5,0,0,0,0-1Z"/><path class="cls-1" d="M23.5,1a.5.5,0,0,0-.5.5V3H18V1.5a.5.5,0,0,0-1,0V6H8A3.5,3.5,0,0,0,4.5,3H2.6a1.46,1.46,0,0,0-.6.12V1.5a.5.5,0,0,0-1,0v22a.5.5,0,0,0,.5.5h22a.5.5,0,0,0,.5-.5V1.5A.5.5,0,0,0,23.5,1ZM23,18H12.61a1.63,1.63,0,0,1-.68-.58,1.18,1.18,0,0,1,0-1.17A.56.56,0,0,0,12,16H23ZM11,7a2.15,2.15,0,0,0,.12,1.93l0,.07H2V7h9ZM2,10H17v5H8A3.5,3.5,0,0,0,4.5,12H2.6a1.46,1.46,0,0,0-.6.12ZM23,7V9H18V7Zm-5,6h5v2H18Zm0-1V10h5v2ZM2,14.41v-.82A.6.6,0,0,1,2.6,13H4.5A2.5,2.5,0,0,1,7,15H2.6A.6.6,0,0,1,2,14.41ZM2,16h9a2.15,2.15,0,0,0,.12,1.93l0,.07H2ZM23,4V6H18V4ZM17,9H12.61a1.63,1.63,0,0,1-.68-.58,1.18,1.18,0,0,1,0-1.17A.56.56,0,0,0,12,7h5ZM2.6,4H4.5A2.5,2.5,0,0,1,7,6H2.6A.6.6,0,0,1,2,5.41V4.59A.6.6,0,0,1,2.6,4ZM2,19H12v4H2Zm11,4V19H23v4Z"/></g></svg>