<svg xmlns="http://www.w3.org/2000/svg" viewBox="0 0 25 25"><defs><style>.cls-1{fill:#231f20;}</style></defs><g id="cabinet_2" data-name="cabinet 2"><path class="cls-1" d="M21.5,1H3.5a.5.5,0,0,0-.5.5v20a.5.5,0,0,0,.5.5H4v1.5a.5.5,0,0,0,.5.5h16a.5.5,0,0,0,.5-.5V22h.5a.5.5,0,0,0,.5-.5V1.5A.5.5,0,0,0,21.5,1ZM4.5,21H4V17h8v4ZM4,7H21v4H4Zm0,9V12H21v4ZM21,2V6H4V2ZM20,23H5V22H20Zm.5-2H13V17h8v4Z"/><path class="cls-1" d="M8.5,4h1.59A2.46,2.46,0,0,0,12.5,5.5,2.46,2.46,0,0,0,14.91,4H16.5a.5.5,0,0,0,0-1h-8a.5.5,0,0,0,0,1Zm4,.5A1.79,1.79,0,0,1,11.22,4h2.56A1.79,1.79,0,0,1,12.5,4.5Z"/><path class="cls-1" d="M16.5,8h-8a.5.5,0,0,0,0,1h1.59a2.46,2.46,0,0,0,2.41,1.5A2.46,2.46,0,0,0,14.91,9H16.5a.5.5,0,0,0,0-1Zm-4,1.5A1.79,1.79,0,0,1,11.22,9h2.56A1.79,1.79,0,0,1,12.5,9.5Z"/><path class="cls-1" d="M16.5,13h-8a.5.5,0,0,0,0,1h1.59a2.46,2.46,0,0,0,2.41,1.5A2.46,2.46,0,0,0,14.91,14H16.5a.5.5,0,0,0,0-1Zm-4,1.5a1.79,1.79,0,0,1-1.28-.5h2.56A1.79,1.79,0,0,1,12.5,14.5Z"/><path class="cls-1" d="M9.5,18a.5.5,0,0,0-.5.5V19H7v-.51a.5.5,0,0,0-1,0v1a.5.5,0,0,0,.5.5h3a.5.5,0,0,0,.5-.5v-1A.5.5,0,0,0,9.5,18Z"/><path class="cls-1" d="M18.5,18a.5.5,0,0,0-.5.5V19H16v-.51a.5.5,0,1,0-1,0v1a.5.5,0,0,0,.5.5h3a.5.5,0,0,0,.5-.5v-1A.5.5,0,0,0,18.5,18Z"/></g></svg>