<svg xmlns="http://www.w3.org/2000/svg" viewBox="0 0 25 25"><defs><style>.cls-1{fill:#231f20;}</style></defs><g id="cabinet"><path class="cls-1" d="M18.5,17a.5.5,0,0,0-.5.5v1a.5.5,0,0,0,1,0v-1A.5.5,0,0,0,18.5,17Z"/><path class="cls-1" d="M6.5,17a.5.5,0,0,0-.5.5v1a.5.5,0,0,0,1,0v-1A.5.5,0,0,0,6.5,17Z"/><path class="cls-1" d="M5.5,7h14a.5.5,0,0,0,0-1H15V2.5a.5.5,0,0,0-.5-.5H13V1.5a.5.5,0,0,0-.5-.5h-5a.5.5,0,0,0-.5.5V6H5.5a.5.5,0,0,0,0,1ZM14,3V6H13V3ZM11,2h1V6H11ZM8,2h2V6H8Z"/><path class="cls-1" d="M23.5,23H23V12.5a.5.5,0,0,0-.5-.5H2.5a.5.5,0,0,0-.5.5V23H1.5a.5.5,0,0,0,0,1h22a.5.5,0,0,0,0-1ZM9,17h7v2H9Zm7-4v3H9V13ZM3,13H8V23H3ZM9,23V20h7v3Zm8,0V13h5V23Z"/></g></svg>