<svg xmlns="http://www.w3.org/2000/svg" viewBox="0 0 25 25"><defs><style>.cls-1{fill:#231f20;}</style></defs><g id="chair_2" data-name="chair 2"><path class="cls-1" d="M21.9,20.2a.5.5,0,0,0-.7-.1A14.32,14.32,0,0,1,17.84,22l-1.93-5H17a2,2,0,0,0,0-4H10.88l-.53-1.95L15.5,11a.5.5,0,0,0,0-1h0l-5.42.05L8.29,3.5a2,2,0,0,0-3.95.89L6,13.55V15a2,2,0,0,0,2,2H9L7.11,22A14.87,14.87,0,0,1,3.8,20.1a.51.51,0,0,0-.7.1.5.5,0,0,0,.1.7,15.5,15.5,0,0,0,18.6,0A.5.5,0,0,0,21.9,20.2ZM5.54,3.37A1,1,0,0,1,6.33,3a1,1,0,0,1,1,.76L9.85,13H6.92L5.32,4.21A1.05,1.05,0,0,1,5.54,3.37ZM7,15V14H17a1,1,0,0,1,0,2H8A1,1,0,0,1,7,15Zm1.06,7.29L10,17.17A.47.47,0,0,0,10,17h4.9a.57.57,0,0,0,0,.18l2,5.12a15.09,15.09,0,0,1-4.4.7A14.15,14.15,0,0,1,8.06,22.29Z"/></g></svg>