<svg xmlns="http://www.w3.org/2000/svg" viewBox="0 0 25 25"><defs><style>.cls-1{fill:#231f20;}</style></defs><g id="chair"><path class="cls-1" d="M20.5,13H19V9h.5a.5.5,0,0,0,.5-.5v-7a.5.5,0,0,0-.5-.5H5.5a.5.5,0,0,0-.5.5v7a.5.5,0,0,0,.5.5H6v4H4.5a.5.5,0,0,0-.5.5v3a.5.5,0,0,0,.5.5H5v6.5a.5.5,0,0,0,.5.5h2a.5.5,0,0,0,.5-.5V22h9v1.5a.5.5,0,0,0,.5.5h2a.5.5,0,0,0,.5-.5V17h.5a.5.5,0,0,0,.5-.5v-3A.5.5,0,0,0,20.5,13ZM18,13H17V9h1ZM9,13V9h7v4ZM6,2H19V8H6ZM7,9H8v4H7ZM7,23H6V17H7v6Zm10-6v2H8V17ZM8,21V20h9v1Zm11,2H18V17h1Zm1-7H5V14H20Z"/><path class="cls-1" d="M7.52,4a.5.5,0,0,0,0-1h0A.49.49,0,0,0,7,3.5.5.5,0,0,0,7.52,4Z"/><path class="cls-1" d="M7.52,7a.5.5,0,0,0,0-1h0A.49.49,0,0,0,7,6.5.5.5,0,0,0,7.52,7Z"/><path class="cls-1" d="M17.52,4a.5.5,0,0,0,0-1h0a.49.49,0,0,0-.49.5A.5.5,0,0,0,17.52,4Z"/><path class="cls-1" d="M17.52,7a.5.5,0,0,0,0-1h0a.49.49,0,0,0-.49.5A.5.5,0,0,0,17.52,7Z"/></g></svg>