<svg xmlns="http://www.w3.org/2000/svg" viewBox="0 0 25 25"><defs><style>.cls-1{fill:#231f20;}</style></defs><g id="door_2" data-name="door 2"><path class="cls-1" d="M14.5,12a.5.5,0,0,0-.5.5v1a.5.5,0,0,0,1,0v-1A.5.5,0,0,0,14.5,12Z"/><path class="cls-1" d="M10.5,12a.5.5,0,0,0-.5.5v1a.5.5,0,0,0,1,0v-1A.5.5,0,0,0,10.5,12Z"/><path class="cls-1" d="M23.5,23H23V2.48A1.48,1.48,0,0,0,21.52,1h-18A1.48,1.48,0,0,0,2,2.48V23H1.5a.5.5,0,0,0,0,1h22a.5.5,0,0,0,0-1ZM3,23V2.48A.47.47,0,0,1,3.48,2H12V23Zm10,0V2h8.52a.47.47,0,0,1,.48.48V23Z"/></g></svg>