<svg xmlns="http://www.w3.org/2000/svg" viewBox="0 0 25 25"><defs><style>.cls-1{fill:#231f20;}</style></defs><g id="hanger"><path class="cls-1" d="M18,10a1,1,0,0,0-1,1,.82.82,0,0,0,.06.27h0A3.1,3.1,0,0,1,14.26,13H14V9h.26a4.1,4.1,0,0,0,3.55-2A1.06,1.06,0,0,0,18,7a1,1,0,1,0-1-1,.82.82,0,0,0,.06.27h0A3.1,3.1,0,0,1,14.26,8H14V4.76l2.86-2.91a.5.5,0,1,0-.72-.7L14,3.33V2.5a1.5,1.5,0,0,0-3,0v.84L8.84,1.15a.49.49,0,0,0-.7,0,.5.5,0,0,0,0,.71L11,4.77V8h-.26A3.1,3.1,0,0,1,8,6.28h0A.82.82,0,0,0,8,6,1,1,0,1,0,7,7a1.06,1.06,0,0,0,.19,0,4.1,4.1,0,0,0,3.55,2H11v4h-.26A3.1,3.1,0,0,1,8,11.28h0A.82.82,0,0,0,8,11a1,1,0,1,0-1,1,1.06,1.06,0,0,0,.19,0,4.1,4.1,0,0,0,3.55,2H11v7h-.81A2.19,2.19,0,0,0,8,23.19a.81.81,0,0,0,.81.81h7.38a.81.81,0,0,0,.81-.81A2.19,2.19,0,0,0,14.81,21H14V14h.26a4.1,4.1,0,0,0,3.55-2A1.06,1.06,0,0,0,18,12a1,1,0,0,0,0-2Zm.5-4h0ZM7,6H7Zm0,5H7Zm9,12H9a1.18,1.18,0,0,1,1.17-1h4.62A1.18,1.18,0,0,1,16,23Zm-4-2V2.5a.5.5,0,0,1,1,0v2a.57.57,0,0,0,0,.13V21Zm6-10Z"/></g></svg>