<svg xmlns="http://www.w3.org/2000/svg" viewBox="0 0 25 25"><defs><style>.cls-1{fill:#231f20;}</style></defs><g id="kitchen"><path class="cls-1" d="M23.5,13H1.5a.5.5,0,0,0-.5.5v3.91s0,.05,0,.07,0,.05,0,.08V23.5a.5.5,0,0,0,.5.5h22a.5.5,0,0,0,.5-.5v-10A.5.5,0,0,0,23.5,13ZM23,17H17V14h6ZM8,14v3H2V14ZM2,18H8v5H2Zm7,5V14h7v3.41s0,.05,0,.07,0,.05,0,.08V23Zm8,0V18h6v5Z"/><path class="cls-1" d="M1.5,7h7A.5.5,0,0,0,9,6.5v-5A.5.5,0,0,0,8.5,1h-7a.5.5,0,0,0-.5.5v5A.5.5,0,0,0,1.5,7ZM2,2H8V6H2Z"/><path class="cls-1" d="M23.5,1h-7a.5.5,0,0,0-.5.5v5a.5.5,0,0,0,.5.5h7a.5.5,0,0,0,.5-.5v-5A.5.5,0,0,0,23.5,1ZM23,6H17V2h6Z"/><path class="cls-1" d="M8.08,9.22A.5.5,0,0,0,8.5,10h8a.5.5,0,0,0,.42-.78L15,6.35V1.5a.5.5,0,0,0-.5-.5h-4a.5.5,0,0,0-.5.5V6.35ZM9.43,9l1.34-2h3.46l1.34,2ZM11,2h3V6H11Z"/><path class="cls-1" d="M14.5,18h-4a.5.5,0,0,0-.5.5v3a.5.5,0,0,0,.5.5h4a.5.5,0,0,0,.5-.5v-3A.5.5,0,0,0,14.5,18ZM14,21H11V19h3Z"/><path class="cls-1" d="M10.52,17a.5.5,0,0,0,0-1h0a.49.49,0,0,0-.49.5A.5.5,0,0,0,10.52,17Z"/><path class="cls-1" d="M12.52,17a.5.5,0,0,0,0-1h0a.49.49,0,0,0-.49.5A.5.5,0,0,0,12.52,17Z"/><path class="cls-1" d="M14.52,16h0a.49.49,0,0,0-.49.5.5.5,0,1,0,.5-.5Z"/><path class="cls-1" d="M4.5,16h1a.5.5,0,0,0,0-1h-1a.5.5,0,0,0,0,1Z"/><path class="cls-1" d="M5.5,4h-1a.5.5,0,0,0,0,1h1a.5.5,0,0,0,0-1Z"/><path class="cls-1" d="M19.5,5h1a.5.5,0,0,0,0-1h-1a.5.5,0,0,0,0,1Z"/><path class="cls-1" d="M5.5,19h-1a.5.5,0,0,0,0,1h1a.5.5,0,0,0,0-1Z"/><path class="cls-1" d="M19.5,16h1a.5.5,0,0,0,0-1h-1a.5.5,0,0,0,0,1Z"/><path class="cls-1" d="M20.5,19h-1a.5.5,0,0,0,0,1h1a.5.5,0,0,0,0-1Z"/></g></svg>