<svg xmlns="http://www.w3.org/2000/svg" viewBox="0 0 25 25"><defs><style>.cls-1{fill:#231f20;}</style></defs><g id="living_room" data-name="living room"><path class="cls-1" d="M24.39,17.9a2.55,2.55,0,0,0-1.94-2.36l-.21-1.41A3.67,3.67,0,0,0,18.62,11H16.38a3.68,3.68,0,0,0-3.62,3.14l-.2,1.4a2.51,2.51,0,0,0-1.94,2.29,4.64,4.64,0,0,0,.66,3.66A3.66,3.66,0,0,0,13.85,23H14v.5a.5.5,0,0,0,.5.5.5.5,0,0,0,.5-.5V23h5v.5a.5.5,0,0,0,.5.5.5.5,0,0,0,.5-.5V23h.21a3.69,3.69,0,0,0,2.5-1.51A4.57,4.57,0,0,0,24.39,17.9Zm-8-5.9h2.24a2.66,2.66,0,0,1,2.63,2.27l.2,1.34a2.45,2.45,0,0,0-1.54,1.82,5.32,5.32,0,0,0,0,1.69,5.17,5.17,0,0,0,.26.93H14.83a5.17,5.17,0,0,0,.26-.93,5.32,5.32,0,0,0,0-1.69,2.48,2.48,0,0,0-1.53-1.81l.19-1.34A2.68,2.68,0,0,1,16.38,12Zm6.53,8.91A2.67,2.67,0,0,1,21.12,22H13.91a2.67,2.67,0,0,1-1.82-1.09A3.75,3.75,0,0,1,11.6,18a1.54,1.54,0,0,1,1.26-1.5h0a1.4,1.4,0,0,1,1.21,1.1,3.83,3.83,0,0,1,0,1.35,3.39,3.39,0,0,1-.5,1.32.5.5,0,0,0,.41.78h7a.5.5,0,0,0,.41-.78A3.39,3.39,0,0,1,20.9,19a3.83,3.83,0,0,1,0-1.35c.08-.46.59-1.16,1.24-1.1s1.17.67,1.27,1.57A3.67,3.67,0,0,1,22.91,20.91Z"/><path class="cls-1" d="M7.5,16h-6a.5.5,0,0,0-.5.5v7a.5.5,0,0,0,1,0V21H7v2.5a.5.5,0,0,0,1,0v-7A.5.5,0,0,0,7.5,16ZM2,20V17H7v3Z"/><path class="cls-1" d="M5,18.31a.36.36,0,0,0-.11-.16.5.5,0,0,0-.7,0,.48.48,0,0,0,0,.7.36.36,0,0,0,.16.11.43.43,0,0,0,.19,0,.51.51,0,0,0,.5-.5A.43.43,0,0,0,5,18.31Z"/><path class="cls-1" d="M13.5,8a.46.46,0,0,0,.38-.18.46.46,0,0,0,.11-.4l-1-6A.5.5,0,0,0,12.5,1h-6A.5.5,0,0,0,6,1.42l-1,6a.46.46,0,0,0,.11.4A.46.46,0,0,0,5.5,8H9V23.5a.5.5,0,0,0,1,0V8ZM6.92,2h5.16l.83,5H6.09Z"/></g></svg>