<svg xmlns="http://www.w3.org/2000/svg" viewBox="0 0 25 25"><defs><style>.cls-1{fill:#231f20;}</style></defs><g id="living_room_2" data-name="living room 2"><path class="cls-1" d="M23.5,13H22V9.5a.5.5,0,0,0-.5-.5h-4a.5.5,0,0,0-.5.5V13H10.81l-.5-1H13.5a.5.5,0,0,0,.5-.5v-7a.5.5,0,0,0-.5-.5H3.5a.5.5,0,0,0-.5.5v7a.5.5,0,0,0,.5.5H6.69l-.5,1H1.5a.5.5,0,0,0,0,1h.57l.79,5.57A1.68,1.68,0,0,0,4.51,21h.3L4,23.34a.49.49,0,0,0,.31.63.45.45,0,0,0,.16,0A.49.49,0,0,0,5,23.66L5.86,21H19.14L20,23.66a.49.49,0,0,0,.47.34.45.45,0,0,0,.16,0,.49.49,0,0,0,.31-.63L20.19,21h.3a1.68,1.68,0,0,0,1.65-1.43L22.93,14h.57a.5.5,0,0,0,0-1ZM18,10h3v3H18ZM4,5h9v6H4Zm3.81,7H9.19l.5,1H7.31Zm-4,7.43L3.08,14H12v6H4.51A.68.68,0,0,1,3.85,19.43Zm17.3,0a.68.68,0,0,1-.66.57H13V14h8.92Z"/><path class="cls-1" d="M8.5,16h-2a.5.5,0,0,0,0,1h2a.5.5,0,0,0,0-1Z"/><path class="cls-1" d="M18.5,16h-2a.5.5,0,0,0,0,1h2a.5.5,0,0,0,0-1Z"/><path class="cls-1" d="M5.5,8a.47.47,0,0,0,.35-.15l1-1a.49.49,0,0,0-.7-.7l-1,1a.48.48,0,0,0,0,.7A.47.47,0,0,0,5.5,8Z"/><path class="cls-1" d="M8.85,6.15a.48.48,0,0,0-.7,0l-3,3a.48.48,0,0,0,0,.7.48.48,0,0,0,.7,0l3-3A.48.48,0,0,0,8.85,6.15Z"/><path class="cls-1" d="M19.52,11h0a.49.49,0,0,0-.49.5.5.5,0,1,0,.5-.5Z"/></g></svg>