<svg xmlns="http://www.w3.org/2000/svg" viewBox="0 0 25 25"><defs><style>.cls-1{fill:#231f20;}</style></defs><g id="mirror"><path class="cls-1" d="M6.5,22h12a.5.5,0,0,0,.5-.5V1.5a.5.5,0,0,0-.5-.5H6.5a.5.5,0,0,0-.5.5v20A.5.5,0,0,0,6.5,22ZM7,2H18V21H7Z"/><path class="cls-1" d="M16.5,3h-8a.5.5,0,0,0-.5.5v16a.5.5,0,0,0,.5.5h8a.5.5,0,0,0,.5-.5V3.5A.5.5,0,0,0,16.5,3ZM16,19H9V4h7Z"/><path class="cls-1" d="M20.5,12h-.56a.5.5,0,1,0,0,1H20V23H5V13a.5.5,0,0,0,0-1H4.5a.5.5,0,0,0-.5.5v11a.5.5,0,0,0,.5.5h16a.5.5,0,0,0,.5-.5v-11A.5.5,0,0,0,20.5,12Z"/><path class="cls-1" d="M10.5,8a.47.47,0,0,0,.35-.15l1-1a.49.49,0,0,0-.7-.7l-1,1a.48.48,0,0,0,0,.7A.47.47,0,0,0,10.5,8Z"/><path class="cls-1" d="M10.5,10a.47.47,0,0,0,.35-.15l3-3a.49.49,0,0,0-.7-.7l-3,3a.48.48,0,0,0,0,.7A.47.47,0,0,0,10.5,10Z"/></g></svg>