<svg xmlns="http://www.w3.org/2000/svg" viewBox="0 0 25 25"><defs><style>.cls-1{fill:#231f20;}</style></defs><g id="office_chair" data-name="office chair"><path class="cls-1" d="M21.7,11.07a1.66,1.66,0,0,0-1.43,0A3.15,3.15,0,0,0,19,14.15v.58l-.23-.19s0,0,0-.08L17.92,2.84A1.92,1.92,0,0,0,16.09,1H8.91A1.92,1.92,0,0,0,7.08,2.84L6.22,14.46s0,0,0,.08L6,14.73v-.55a3.18,3.18,0,0,0-1.27-3.1,1.66,1.66,0,0,0-1.43,0,.5.5,0,0,0,.4.92.64.64,0,0,1,.57,0A2.31,2.31,0,0,1,5,14.15v3.76A1.09,1.09,0,0,0,6.09,19H11v2H8.89A1.89,1.89,0,0,0,7,22.89v.61a.5.5,0,0,0,1,0v-.61A.89.89,0,0,1,8.89,22h7.22a.89.89,0,0,1,.89.89v.61a.5.5,0,0,0,1,0v-.61A1.89,1.89,0,0,0,16.11,21H14V19h4.91A1.09,1.09,0,0,0,20,17.91v-1h0v-2.8A2.27,2.27,0,0,1,20.73,12a.64.64,0,0,1,.57,0,.5.5,0,0,0,.4-.92ZM7.26,14,8.08,2.91A.92.92,0,0,1,8.91,2h7.18a.92.92,0,0,1,.83.91L17.74,14H7.26ZM13,21H12V19h1Zm6-3.09a.09.09,0,0,1-.09.09H6.09A.09.09,0,0,1,6,17.91v-1A1.92,1.92,0,0,1,7.91,15h9.18A1.92,1.92,0,0,1,19,16.91v1Z"/></g></svg>