<svg xmlns="http://www.w3.org/2000/svg" viewBox="0 0 25 25"><defs><style>.cls-1{fill:#231f20;}</style></defs><g id="safe"><path class="cls-1" d="M22.31,1H2.69A1.69,1.69,0,0,0,1,2.69V20.31A1.69,1.69,0,0,0,2.69,22H4v1.5a.5.5,0,0,0,.5.5h3a.5.5,0,0,0,.5-.5V22h9v1.5a.5.5,0,0,0,.5.5h3a.5.5,0,0,0,.5-.5V22h1.31A1.69,1.69,0,0,0,24,20.31V2.69A1.69,1.69,0,0,0,22.31,1ZM7,23H5V22H7Zm13,0H18V22h2Zm3-2.69a.69.69,0,0,1-.69.69H2.69A.69.69,0,0,1,2,20.31V2.69A.69.69,0,0,1,2.69,2H22.31a.69.69,0,0,1,.69.69Z"/><path class="cls-1" d="M21.5,3H4.5a.5.5,0,0,0-.5.5V6H3.5a.5.5,0,0,0-.5.5v3a.5.5,0,0,0,.5.5H4v3H3.5a.5.5,0,0,0-.5.5v3a.5.5,0,0,0,.5.5H4v2.5a.5.5,0,0,0,.5.5h17a.5.5,0,0,0,.5-.5V3.5A.5.5,0,0,0,21.5,3ZM4,7H5V9H4Zm0,7H5v2H4Zm17,5H5V17h.5a.5.5,0,0,0,.5-.5v-3a.5.5,0,0,0-.5-.5H5V10h.5A.5.5,0,0,0,6,9.5v-3A.5.5,0,0,0,5.5,6H5V4H21Z"/><path class="cls-1" d="M17.52,11h0a.49.49,0,0,0-.49.5.5.5,0,1,0,.5-.5Z"/><path class="cls-1" d="M15.52,11h0a.49.49,0,0,0-.49.5.5.5,0,1,0,.5-.5Z"/><path class="cls-1" d="M13.52,11h0a.49.49,0,0,0-.49.5.5.5,0,1,0,.5-.5Z"/><path class="cls-1" d="M13.52,13h0a.49.49,0,0,0-.49.5.5.5,0,1,0,.5-.5Z"/><path class="cls-1" d="M15.52,13h0a.49.49,0,0,0-.49.5.5.5,0,1,0,.5-.5Z"/><path class="cls-1" d="M17.52,13h0a.49.49,0,0,0-.49.5.5.5,0,1,0,.5-.5Z"/><path class="cls-1" d="M13.52,15h0a.49.49,0,0,0-.49.5.5.5,0,1,0,.5-.5Z"/><path class="cls-1" d="M15.52,15h0a.49.49,0,0,0-.49.5.5.5,0,1,0,.5-.5Z"/><path class="cls-1" d="M17.52,15h0a.49.49,0,0,0-.49.5.5.5,0,1,0,.5-.5Z"/><path class="cls-1" d="M12.5,10h6a.5.5,0,0,0,.5-.5v-2a.5.5,0,0,0-.5-.5h-6a.5.5,0,0,0-.5.5v2A.5.5,0,0,0,12.5,10ZM13,8h5V9H13Z"/></g></svg>