<svg xmlns="http://www.w3.org/2000/svg" viewBox="0 0 25 25"><defs><style>.cls-1{fill:#231f20;}</style></defs><g id="house_keeping" data-name="house keeping"><path class="cls-1" d="M23,23.38l-1-3.81V17.5a.51.51,0,0,0-.22-.42L19,15.23V2.5a1.5,1.5,0,0,0-3,0V3H15V1.5a.5.5,0,0,0-.5-.5H5.72A4.06,4.06,0,0,0,2.21,3H1.94A.94.94,0,0,0,1,3.94V5.06A.94.94,0,0,0,1.94,6H2V9.1a1.91,1.91,0,0,0,1,1.68L4,21.54a.51.51,0,0,0,.5.46h7.87L12,23.38a.48.48,0,0,0,.09.43.49.49,0,0,0,.39.19h10a.53.53,0,0,0,.4-.19A.52.52,0,0,0,23,23.38ZM21,19H14V17.77L16.65,16h1.7L21,17.77Zm-5-8.22,0,0v4.47l-.46.31ZM18,15H17V14h1ZM17,2.5a.5.5,0,0,1,1,0V13H17V2.5ZM5.72,2H14V3H3.44A3.08,3.08,0,0,1,5.72,2ZM2.5,4H16V5H2.5a.46.46,0,0,0-.23.06H2L1.94,4ZM3,6H16V9.1a.9.9,0,0,1-.9.9H3.9A.9.9,0,0,1,3,9.1ZM5,21,4.05,11H15l-.47,5.25-1.26.83a.51.51,0,0,0-.22.42v2L12.62,21Zm8.18,2,.77-3H15v.49a.5.5,0,0,0,.49.51h0a.51.51,0,0,0,.5-.49V20h1v.49a.5.5,0,0,0,.49.51h0a.51.51,0,0,0,.5-.49V20h1v.49a.5.5,0,0,0,.49.51h0a.51.51,0,0,0,.5-.49V20h1.07l.77,3Z"/><path class="cls-1" d="M8.81,17h-.5l.11-.23a.49.49,0,0,0-.22-.67.5.5,0,0,0-.67.22l-.48,1a.51.51,0,0,0,0,.48A.52.52,0,0,0,7.5,18H8.81a.5.5,0,0,0,.5-.5A.51.51,0,0,0,8.81,17Z"/><path class="cls-1" d="M10.24,15a.52.52,0,0,0,.22-.68l-.51-1a.5.5,0,0,0-.9,0l-.76,1.53a.5.5,0,0,0,.22.67.46.46,0,0,0,.23,0,.48.48,0,0,0,.44-.28l.32-.63.07.13A.5.5,0,0,0,10.24,15Z"/><path class="cls-1" d="M11.22,15.82a.5.5,0,0,0-.67-.23.49.49,0,0,0-.22.67l.36.74h-.23a.5.5,0,0,0,0,1h1a.49.49,0,0,0,.42-.24.48.48,0,0,0,0-.48Z"/></g></svg>