<svg xmlns="http://www.w3.org/2000/svg" viewBox="0 0 25 25"><defs><style>.cls-1{fill:#231f20;}</style></defs><g id="shelves"><path class="cls-1" d="M22.5,16H19.79A1.19,1.19,0,0,0,21,15h0c1.12,0,2-.66,2-1.5S22.12,12,21,12v-.5a.5.5,0,0,0-.5-.5h-3a.5.5,0,0,0-.5.5v3.29A1.21,1.21,0,0,0,18.21,16H16V9.5a.5.5,0,0,0-.5-.5H9V2.5A.5.5,0,0,0,8.5,2h-7a.5.5,0,0,0-.5.5v21a.5.5,0,0,0,.5.5h21a.5.5,0,0,0,.5-.5v-7A.5.5,0,0,0,22.5,16ZM22,13.5c0,.2-.4.5-1,.5V13C21.6,13,22,13.3,22,13.5Zm-4,1.29V12h2v2.79a.21.21,0,0,1-.21.21H18.21A.21.21,0,0,1,18,14.79ZM15,16H14V14.5a.5.5,0,0,0-.5-.5H13V12.5a.5.5,0,0,0-.5-.5H9V10h6ZM2,10H8v6H2Zm10,4H9V13h3ZM9,15h4v1H9ZM2,3H8V9H2ZM2,17H8v6H7V19.48A1.48,1.48,0,0,0,5.52,18h-1A1.48,1.48,0,0,0,3,19.48V23H2Zm4,3H4v-.52A.49.49,0,0,1,4.48,19h1a.49.49,0,0,1,.48.48ZM4,23V21H6v2Zm5-6h6v6H13.72A2,2,0,0,0,14,22V20.5a.5.5,0,0,0-.5-.5h-3a.5.5,0,0,0-.5.5V22a2,2,0,0,0,.28,1H9Zm2,5V21h2v1a1,1,0,0,1-2,0Zm5-3h1v4H16Zm3,4H18V20h1Zm3,0H20V19.5a.5.5,0,0,0-.5-.5H18v-.5a.5.5,0,0,0-.5-.5H16V17h6Z"/><path class="cls-1" d="M7,7A2,2,0,1,0,5,9,2,2,0,0,0,7,7ZM5,8A1,1,0,1,1,6,7,1,1,0,0,1,5,8Z"/></g></svg>