<svg xmlns="http://www.w3.org/2000/svg" viewBox="0 0 25 25"><defs><style>.cls-1{fill:#231f20;}</style></defs><g id="shelves_2" data-name="shelves 2"><path class="cls-1" d="M11,14a2,2,0,1,0-2,2A2,2,0,0,0,11,14ZM9,15a1,1,0,1,1,1-1A1,1,0,0,1,9,15Z"/><path class="cls-1" d="M20.5,23H20s0-.07,0-.11V3.11A1.11,1.11,0,0,0,18.89,2H6.11A1.11,1.11,0,0,0,5,3.11V22.89S5,23,5,23H4.5a.5.5,0,0,0,0,1h16a.5.5,0,0,0,0-1ZM16,21H13V20h3Zm-4-1.5V23H10V19.5a.5.5,0,0,0-.5-.5H8v-.5a.5.5,0,0,0-.5-.5H6V17h6ZM8,20H9v3H8Zm1-4H6V10h6v6Zm4-6h6v6H13Zm4-4H15V5.48A.49.49,0,0,1,15.48,5h1a.49.49,0,0,1,.48.48ZM15,7h2V9H15Zm4-3.89V9H18V5.48A1.48,1.48,0,0,0,16.52,4h-1A1.48,1.48,0,0,0,14,5.48V9H13V3h5.89A.11.11,0,0,1,19,3.11ZM6.11,3H12V9H6V3.11A.11.11,0,0,1,6.11,3ZM6,22.89V19H7v4H6.11A.11.11,0,0,1,6,22.89ZM13,23V22h4v1Zm5,0V21.5a.5.5,0,0,0-.5-.5H17V19.5a.5.5,0,0,0-.5-.5H13V17h6v5.89a.11.11,0,0,1-.11.11Z"/></g></svg>