<svg xmlns="http://www.w3.org/2000/svg" viewBox="0 0 25 25"><defs><style>.cls-1{fill:#231f20;}</style></defs><g id="shower"><path class="cls-1" d="M14.5,1a5.88,5.88,0,0,0-3.37,1.16,2.94,2.94,0,0,0-1.08,1.89A3.49,3.49,0,0,0,7,7.5V9H6.5a.5.5,0,0,0,0,1h8a.5.5,0,0,0,0-1H14V7.5a3.49,3.49,0,0,0-2.95-3.44A1.92,1.92,0,0,1,11.73,3a4.89,4.89,0,0,1,2.83-1h0A3.58,3.58,0,0,1,18,5.64V23.5a.5.5,0,0,0,1,0V5.64A4.6,4.6,0,0,0,14.5,1ZM13,7.5V9H8V7.5a2.5,2.5,0,0,1,5,0Z"/><path class="cls-1" d="M8.76,11a.5.5,0,0,0-.61.35l-.27,1a.5.5,0,0,0,.36.61l.13,0a.5.5,0,0,0,.48-.37l.27-1A.5.5,0,0,0,8.76,11Z"/><path class="cls-1" d="M10.5,11a.5.5,0,0,0-.5.5v1a.5.5,0,0,0,1,0v-1A.5.5,0,0,0,10.5,11Z"/><path class="cls-1" d="M13.08,12.41l-.18-1a.5.5,0,0,0-1,.18l.18,1a.49.49,0,0,0,.49.41h.08A.49.49,0,0,0,13.08,12.41Z"/><path class="cls-1" d="M7.67,14a.49.49,0,0,0-.57.4l-.18,1a.49.49,0,0,0,.41.58h.08a.49.49,0,0,0,.49-.41l.18-1A.49.49,0,0,0,7.67,14Z"/><path class="cls-1" d="M10.5,14a.5.5,0,0,0-.5.5v1a.5.5,0,0,0,1,0v-1A.5.5,0,0,0,10.5,14Z"/><path class="cls-1" d="M13.33,14a.49.49,0,0,0-.41.58l.18,1a.49.49,0,0,0,.49.41h.08a.49.49,0,0,0,.41-.58l-.18-1A.49.49,0,0,0,13.33,14Z"/></g></svg>