<svg xmlns="http://www.w3.org/2000/svg" viewBox="0 0 25 25"><defs><style>.cls-1{fill:#231f20;}</style></defs><g id="single_bed" data-name="single bed"><path class="cls-1" d="M21,12.52v-8a.5.5,0,0,0-1,0V5H5V4.5a.5.5,0,0,0-1,0v8a4.37,4.37,0,0,0-3,3.85V20.5a.5.5,0,0,0,1,0V20H23v.5a.5.5,0,0,0,1,0V16.37A4.37,4.37,0,0,0,21,12.52ZM5,12V6H20v6H16v-.49A2.51,2.51,0,0,0,13.49,9h-2A2.52,2.52,0,0,0,9,11.51V12H5Zm10,0H10v-.49A1.52,1.52,0,0,1,11.51,10h2A1.52,1.52,0,0,1,15,11.51ZM2,19V16.37C2,14.51,4.1,13,6.68,13H18.32C20.9,13,23,14.51,23,16.37V19Z"/></g></svg>