<svg xmlns="http://www.w3.org/2000/svg" viewBox="0 0 25 25"><defs><style>.cls-1{fill:#231f20;}</style></defs><g id="sink"><path class="cls-1" d="M19.5,1H5.5a.5.5,0,0,0-.5.5v17a.5.5,0,0,0,.5.5h1a.5.5,0,0,0,0-1H6V2H19V18h-.5a.5.5,0,0,0,0,1h1a.5.5,0,0,0,.5-.5V1.5A.5.5,0,0,0,19.5,1Z"/><path class="cls-1" d="M18,16.61V15.5a.5.5,0,0,0-.5-.5H17V13.5a.5.5,0,0,0-.5-.5h-2a.5.5,0,0,0-.5.5V15H13V10.92a.51.51,0,0,1,1,0,.5.5,0,1,0,1,0,1.5,1.5,0,0,0-3,0V15H11V13.5a.5.5,0,0,0-.5-.5h-2a.5.5,0,0,0-.5.5V15H7.5a.5.5,0,0,0-.5.5v1.11A4.37,4.37,0,0,0,11,21V22.5a1.5,1.5,0,0,0,3,0V21A4.37,4.37,0,0,0,18,16.61ZM15,14h1v1H15ZM9,14h1v1H9Zm4,8.5a.5.5,0,0,1-1,0V21h1Zm.61-2.5H11.39A3.39,3.39,0,0,1,8,16.61V16h9v.61A3.39,3.39,0,0,1,13.61,20Z"/><path class="cls-1" d="M7.5,6a.47.47,0,0,0,.35-.15l2-2a.49.49,0,0,0-.7-.7l-2,2a.48.48,0,0,0,0,.7A.47.47,0,0,0,7.5,6Z"/><path class="cls-1" d="M7.15,7.85a.48.48,0,0,0,.7,0l4-4a.49.49,0,0,0-.7-.7l-4,4A.48.48,0,0,0,7.15,7.85Z"/></g></svg>