<svg xmlns="http://www.w3.org/2000/svg" viewBox="0 0 25 25"><defs><style>.cls-1{fill:#231f20;}</style></defs><g id="sofa_2" data-name="sofa 2"><path class="cls-1" d="M23,10.51V8.9A3.91,3.91,0,0,0,19.1,5H15.9a3.89,3.89,0,0,0-3.4,2A3.89,3.89,0,0,0,9.1,5H5.9A3.91,3.91,0,0,0,2,8.9v1.61a2.51,2.51,0,0,0-1,2v4.21A1.29,1.29,0,0,0,2.29,18H22.71A1.29,1.29,0,0,0,24,16.71V12.5A2.51,2.51,0,0,0,23,10.51ZM15.9,6h3.2A2.9,2.9,0,0,1,22,8.9v1.15a2.73,2.73,0,0,0-.5-.05A2.5,2.5,0,0,0,19,12.5V14H16.72A2,2,0,0,0,15,11H13V8.9A2.9,2.9,0,0,1,15.9,6ZM6,15H19v2H6Zm3-2a1,1,0,0,1,1-1h2.33a.38.38,0,0,0,.34,0H15a1,1,0,0,1,0,2H10A1,1,0,0,1,9,13ZM3,8.9A2.9,2.9,0,0,1,5.9,6H9.1A2.9,2.9,0,0,1,12,8.9V11H10a2,2,0,0,0-1.72,3H6V12.5A2.5,2.5,0,0,0,3.5,10a2.73,2.73,0,0,0-.5.05ZM2,16.71V12.5a1.5,1.5,0,0,1,3,0V17H2.29A.29.29,0,0,1,2,16.71Zm21,0a.29.29,0,0,1-.29.29H20V12.5a1.5,1.5,0,0,1,3,0Z"/><path class="cls-1" d="M5.52,9a.5.5,0,0,0,0-1h0a.5.5,0,0,0-.5.5A.5.5,0,0,0,5.52,9Z"/><path class="cls-1" d="M9.52,9a.5.5,0,0,0,0-1h0a.5.5,0,0,0-.5.5A.5.5,0,0,0,9.52,9Z"/><path class="cls-1" d="M15.52,9a.5.5,0,0,0,0-1h0a.5.5,0,0,0-.5.5A.5.5,0,0,0,15.52,9Z"/><path class="cls-1" d="M19.52,9a.5.5,0,0,0,0-1h0a.5.5,0,0,0-.5.5A.5.5,0,0,0,19.52,9Z"/><path class="cls-1" d="M4.5,19h-2a.5.5,0,0,0,0,1h2a.5.5,0,0,0,0-1Z"/><path class="cls-1" d="M22.5,19h-2a.5.5,0,0,0,0,1h2a.5.5,0,0,0,0-1Z"/></g></svg>