<svg xmlns="http://www.w3.org/2000/svg" viewBox="0 0 25 25"><defs><style>.cls-1{fill:#231f20;}</style></defs><g id="stool"><path class="cls-1" d="M20,4.5V3.22A2.23,2.23,0,0,0,17.78,1H7.22A2.23,2.23,0,0,0,5,3.22V4.5a.5.5,0,0,0,.5.5H6L5,23.47a.46.46,0,0,0,.14.37A.48.48,0,0,0,5.5,24H7.6a.51.51,0,0,0,.5-.47L8.41,18H11v5.5a.5.5,0,0,0,.5.5h2a.5.5,0,0,0,.5-.5V18h2.63L17,23.53a.51.51,0,0,0,.5.47h2a.48.48,0,0,0,.36-.16.46.46,0,0,0,.14-.37L19,5h.47A.5.5,0,0,0,20,4.5ZM6,3.22A1.22,1.22,0,0,1,7.22,2H17.78A1.22,1.22,0,0,1,19,3.22V4H6ZM16,8l.42,7H14V8Zm-3,7H12V8h1Zm-2,0H8.58L9,8h2Zm2,8H12V18h1ZM8.46,17l.06-1h8l.06,1ZM19,23h-1L17,7.47A.51.51,0,0,0,16.5,7h-8a.5.5,0,0,0-.5.47L7.12,23H6L7,5H18Z"/></g></svg>