<svg xmlns="http://www.w3.org/2000/svg" viewBox="0 0 25 25"><defs><style>.cls-1{fill:#231f20;}</style></defs><g id="storage"><path class="cls-1" d="M23.5,1H1.5a.5.5,0,0,0-.5.5v22a.5.5,0,0,0,.5.5h2a.5.5,0,0,0,.5-.5V22h7v1.5a.5.5,0,0,0,.5.5h2a.5.5,0,0,0,.5-.5V22h7v1.5a.5.5,0,0,0,.5.5h2a.5.5,0,0,0,.5-.5V1.5A.5.5,0,0,0,23.5,1ZM23,21H13V2H23ZM2,2H12V21H2ZM3,23H2V22H3Zm10,0H12V22h1Zm10,0H22V22h1Z"/><path class="cls-1" d="M3.5,18h7a.5.5,0,0,0,0-1h-7a.5.5,0,0,0,0,1Z"/><path class="cls-1" d="M10.5,20a.5.5,0,0,0,0-1h-7a.5.5,0,0,0,0,1Z"/><path class="cls-1" d="M14.5,18h7a.5.5,0,0,0,0-1h-7a.5.5,0,0,0,0,1Z"/><path class="cls-1" d="M14.5,20h7a.5.5,0,0,0,0-1h-7a.5.5,0,0,0,0,1Z"/><path class="cls-1" d="M20.5,11H21v.5a.5.5,0,0,0,1,0v-1a.5.5,0,0,0-.5-.5h-1a.5.5,0,0,0,0,1Z"/><path class="cls-1" d="M9.5,11H10v.5a.5.5,0,0,0,1,0v-1a.5.5,0,0,0-.5-.5h-1a.5.5,0,0,0,0,1Z"/></g></svg>