<svg xmlns="http://www.w3.org/2000/svg" viewBox="0 0 25 25"><defs><style>.cls-1{fill:#231f20;}</style></defs><g id="wardrobe_2" data-name="wardrobe 2"><path class="cls-1" d="M21.08,1H3.92A.92.92,0,0,0,3,1.92V21.5a.5.5,0,0,0,.5.5H4v1.5a.5.5,0,0,0,.5.5h16a.5.5,0,0,0,.5-.5V22h.5a.5.5,0,0,0,.5-.5V1.92A.92.92,0,0,0,21.08,1ZM21,13H16V2h5Zm0,4H16V14h5ZM15,2V21H10V2ZM4,2H9V21H4ZM20,23H5V22H20Zm.5-2H16V18h5v3Z"/><path class="cls-1" d="M7.5,12a.5.5,0,0,0,.5-.5v-1a.5.5,0,0,0-1,0v1A.5.5,0,0,0,7.5,12Z"/><path class="cls-1" d="M11.5,12a.5.5,0,0,0,.5-.5v-1a.5.5,0,0,0-1,0v1A.5.5,0,0,0,11.5,12Z"/><path class="cls-1" d="M17.5,12a.5.5,0,0,0,.5-.5v-1a.5.5,0,0,0-1,0v1A.5.5,0,0,0,17.5,12Z"/><path class="cls-1" d="M18.52,16a.5.5,0,0,0,0-1h0a.49.49,0,0,0-.49.5A.5.5,0,0,0,18.52,16Z"/><path class="cls-1" d="M18.52,19h0a.49.49,0,0,0-.49.5.5.5,0,1,0,.5-.5Z"/></g></svg>