<svg id="water_tap" data-name="water tap" xmlns="http://www.w3.org/2000/svg" viewBox="0 0 25 25"><defs><style>.cls-1{fill:#231f20;}</style></defs><path class="cls-1" d="M23.05,11.41a3,3,0,0,0-2.25-.79L9,11.46A.49.49,0,0,0,8.5,11H8V6h6.5a1.5,1.5,0,0,0,0-3H1.5a.5.5,0,0,0-.5.5v2a.5.5,0,0,0,.5.5H2v5H1.5a.5.5,0,0,0-.5.5v9a.5.5,0,0,0,.5.5h7a.5.5,0,0,0,.5-.5V17.79l9-1.94v1.42a.47.47,0,0,0,.19.38.45.45,0,0,0,.31.11h.1l4-.83a.5.5,0,0,0,.4-.49V14.77l.61-.13a.49.49,0,0,0,.39-.49V13.6A3,3,0,0,0,23.05,11.41ZM22,16l-3,.63v-.89l3-.69ZM2,4H14.5a.5.5,0,0,1,0,1H2ZM3,6H7v5H3ZM8,20H2V12H8v8Zm15-6.25-14,3V12.47l11.87-.86a2,2,0,0,1,1.5.53A2,2,0,0,1,23,13.6Z"/><path class="cls-1" d="M20.77,19.08a.48.48,0,0,0-.54,0,3.27,3.27,0,0,0-1.54,3.84,2,2,0,0,0,3.62,0A3.27,3.27,0,0,0,20.77,19.08Zm.64,3.41a1.06,1.06,0,0,1-1.82,0,2.28,2.28,0,0,1,.91-2.38A2.28,2.28,0,0,1,21.41,22.49Z"/><path class="cls-1" d="M3.5,15a.5.5,0,0,0-.5.5v3a.5.5,0,0,0,1,0v-3A.5.5,0,0,0,3.5,15Z"/><path class="cls-1" d="M3.52,13h0a.5.5,0,0,0-.5.5.5.5,0,0,0,.51.5.5.5,0,0,0,0-1Z"/></svg>