<?xml version="1.0" encoding="UTF-8"?>
<svg id="Capa_2" data-name="Capa 2" xmlns="http://www.w3.org/2000/svg" viewBox="0 0 372.12 342.53">
  <defs>
    <style>
      .cls-1 {
        fill: #e28412;
        stroke-width: 0px;
      }
    </style>
  </defs>
  <g id="Capa_1-2" data-name="Capa 1-2">
    <path class="cls-1" d="M368.63,127.26c-6.63-15.93-21.2-28.46-38.61-30.73l1.27-16.29c-.72-68.06-80.46-105.68-133.2-60.55-19.71,16.86-28.93,42.51-27.61,68.2-38.3,11.52-56.81,54.52-39.64,90.65h-23.78c-15-.72-95.25-.61-100.07.07-3.75.53-5.32,2.59-6.97,5.74v50.05c.91,1.53,3.63,5.08,5.45,5.08h23.62v26.11H5.45c-1.28,0-4.48,3.97-5.45,5.08v33.37c.97,1.11,4.17,5.08,5.45,5.08h23.62v18.86H5.45c-1.28,0-4.48,3.97-5.45,5.08v4.35c2.08,2.43,3.91,5.37,7.6,5.11l319.07-.08c9.24-2.82,7.68-13.9-1.75-14.5,1.51-35.45-37.97-56.13-66.9-35.52v-71.09c18.43-2.57,33.44-13.96,42.12-30.12,16.7,6.74,34.12,6.2,49.39-3.67,12.72-8.22,19.86-21.15,22.59-35.85v-11.61l-3.5-12.83h0ZM14.54,224.96v-31.92h164.26v31.92H14.54ZM149.73,239.47v26.11H43.61v-26.11h106.12,0ZM14.54,294.6v-14.51h164.26v14.51H14.54ZM149.73,327.97H43.61v-18.86h106.12v18.86h0ZM210.78,327.97h-46.52v-18.86h23.62c2.47,0,5.26-5.07,5.49-7.58.57-6.22.84-23.93-.08-29.73-.3-1.88-3.83-6.21-5.41-6.21h-23.62v-26.11c6.87-.94,17.21,1.27,23.62,0,8.85-1.76,4.4-19.6,5.45-26.12,7.42.32,14.49-2.47,21.33-4.93,8.76,6.91,18.06,10.75,28.85,13.39l-.13,75.23c-.5,1.46-4.92,1.55-6.6,2.12-13.62,4.58-22.92,14.72-26.01,28.81h.01ZM258.06,312.41c2.65-.82,4.08-4.21,5.85-5.77,19.61-17.25,47.3-4.37,46.44,21.32h-84.31c1.89-7.86,10.68-15.01,18.61-15.87,4.52-.5,9.29,1.59,13.41.32h0ZM311.66,179.77c-5.52-1.5-12.31-7.99-17.3-6.71-5.06,1.29-5.39,7.69-7.35,11.55-5.98,11.79-16.14,19.19-28.98,22.21v-48.24l36.35-36.26c5.11-6.19-1.65-14.78-8.77-10.93l-27.58,26.52v-30.83c0-3.86-8.41-6.46-12.01-3.29-.49.43-2.52,3.76-2.52,4.01v56.22l-29.98-29.19c-7.85-3.23-13.77,5.62-8.19,11.8l38.18,38.06v22.13c-5.9-1.56-11.36-3.72-16.36-7.25-3.02-2.13-6.42-6.96-10.26-7.23-5.26-.36-16.64,8.11-23.53,6.5v-14.15c0-2.81-4.28-5.72-6.97-6.1-11-1.55-25.39,1.43-36.31-.03-2.92-.39-4.76-4.44-6.06-7.01-12.42-24.65-1.2-56.18,24.14-67.14,7.42-3.21,18.02-2.08,18-11.85-.05-20.98-2.09-30.93,10.54-49.62,38.2-56.51,128.65-22.22,119.41,46.64-.86,6.38-7.27,18.58,2.8,20.59,5.77,1.15,10.5.1,16.91,2.71,39.67,16.11,20.48,79-24.13,66.89h-.03Z"/>
  </g>
</svg>