<?xml version="1.0" encoding="utf-8"?>
<!-- Generator: Adobe Illustrator 28.1.0, SVG Export Plug-In . SVG Version: 6.00 Build 0)  -->
<svg version="1.1" id="Capa_2_00000092438447611344354890000008675092196090326171_"
	 xmlns="http://www.w3.org/2000/svg" xmlns:xlink="http://www.w3.org/1999/xlink" x="0px" y="0px" viewBox="0 0 400.7 400.7"
	 style="enable-background:new 0 0 400.7 400.7;" xml:space="preserve">
<style type="text/css">
	.st0{fill:#023629;}
</style>
<g id="Capa_2-2">
	<path class="st0" d="M349.2,400.7H51.5C23.1,400.7,0,377.6,0,349.2V51.5C0,23.1,23.1,0,51.5,0h297.6c28.5,0,51.6,23.1,51.6,51.5
		v297.6c0,28.4-23.1,51.5-51.5,51.5V400.7z M51.5,18C33,18,18,33,18,51.5v297.6c0,18.5,15,33.5,33.5,33.5h297.6
		c18.5,0,33.5-15,33.5-33.5V51.5c0-18.5-15-33.5-33.5-33.5H51.5z"/>
	<g>
		<path class="st0" d="M357.6,205.8H260v-16.3c0-3-2.4-5.4-5.4-5.4H157c-3,0-5.4,2.4-5.4,5.4v16.3H43.1c-3,0-5.4,2.4-5.4,5.4v146.4
			c0,3,2.4,5.4,5.4,5.4h314.5c3,0,5.4-2.4,5.4-5.4V211.2C363,208.2,360.6,205.8,357.6,205.8L357.6,205.8z M249.1,205.8h-38V195h38
			V205.8z M162.4,194.9h38v10.8h-38V194.9z M48.5,216.6h81.3v38H48.5V216.6z M48.5,265.4h81.3v86.7H48.5V265.4L48.5,265.4z
			 M140.7,216.6h130.1v135.5H140.7L140.7,216.6L140.7,216.6z M352.2,352.2h-70.5V216.7h70.5V352.2z"/>
		<path class="st0" d="M254.6,270.8H157c-3,0-5.4,2.4-5.4,5.4v59.6c0,3,2.4,5.4,5.4,5.4h97.6c3,0,5.4-2.4,5.4-5.4v-59.6
			C260,273.2,257.6,270.8,254.6,270.8L254.6,270.8z M249.1,330.5h-86.7v-48.8h86.7V330.5z"/>
		<path class="st0" d="M167.8,260c9,0,16.3-7.3,16.3-16.3s-7.3-16.3-16.3-16.3s-16.3,7.3-16.3,16.3S158.8,260,167.8,260z
			 M167.8,238.3c3,0,5.4,2.4,5.4,5.4s-2.4,5.4-5.4,5.4s-5.4-2.4-5.4-5.4S164.8,238.3,167.8,238.3z"/>
		<path class="st0" d="M211.2,260c9,0,16.3-7.3,16.3-16.3s-7.3-16.3-16.3-16.3s-16.3,7.3-16.3,16.3S202.2,260,211.2,260z
			 M211.2,238.3c3,0,5.4,2.4,5.4,5.4s-2.4,5.4-5.4,5.4s-5.4-2.4-5.4-5.4S208.2,238.3,211.2,238.3z"/>
		<path class="st0" d="M254.6,227.4h-10.8c-3,0-5.4,2.4-5.4,5.4s2.4,5.4,5.4,5.4h10.8c3,0,5.4-2.4,5.4-5.4S257.6,227.4,254.6,227.4
			L254.6,227.4z"/>
		<path class="st0" d="M254.6,249.1h-10.8c-3,0-5.4,2.4-5.4,5.4s2.4,5.4,5.4,5.4h10.8c3,0,5.4-2.4,5.4-5.4S257.6,249.1,254.6,249.1
			L254.6,249.1z"/>
		<path class="st0" d="M178.7,319.6c1.4,0,2.8-0.6,3.8-1.6l16.3-16.3c2.1-2.1,2-5.5,0-7.6s-5.5-2.1-7.6,0l-16.3,16.3
			c-1.5,1.6-2,3.9-1.2,5.9S176.5,319.6,178.7,319.6L178.7,319.6L178.7,319.6z"/>
		<path class="st0" d="M211.2,319.6c1.4,0,2.8-0.6,3.8-1.6l16.3-16.3c2.1-2.1,2-5.5,0-7.6s-5.5-2.1-7.6,0l-16.3,16.3
			c-1.5,1.6-2,3.9-1.2,5.9S209,319.6,211.2,319.6L211.2,319.6L211.2,319.6z"/>
		<path class="st0" d="M97.3,227.4H81c-3,0-5.4,2.4-5.4,5.4s2.4,5.4,5.4,5.4h16.3c3,0,5.4-2.4,5.4-5.4S100.3,227.4,97.3,227.4z"/>
		<path class="st0" d="M97.3,276.2H81c-3,0-5.4,2.4-5.4,5.4S78,287,81,287h16.3c3,0,5.4-2.4,5.4-5.4S100.3,276.2,97.3,276.2z"/>
		<path class="st0" d="M297.9,238.3h38c3,0,5.4-2.4,5.4-5.4s-2.4-5.4-5.4-5.4h-38c-3,0-5.4,2.4-5.4,5.4S294.9,238.3,297.9,238.3
			L297.9,238.3z"/>
		<path class="st0" d="M232.9,37.7h-54.2c-3,0-5.4,2.4-5.4,5.4v19.1l-25.1,20.1c0,0-0.5,0.6-0.7,0.7c-0.3,0.3-0.5,0.7-0.7,1.1
			c-0.1,0.2-0.2,0.4-0.3,0.6c-0.2,0.6-0.3,1.2-0.4,1.8v43.4c0,3,2.4,5.4,5.4,5.4h108.4c3,0,5.4-2.4,5.4-5.4V86.5
			c0-0.6-0.2-1.2-0.4-1.8c0-0.2-0.2-0.4-0.3-0.6c-0.2-0.4-0.4-0.8-0.7-1.1c-0.1-0.2-0.6-0.7-0.7-0.7l-25.1-20V43.2
			c0-3-2.4-5.4-5.4-5.4l0,0L232.9,37.7z M184.1,48.5h43.4v10.8h-43.4V48.5z M254.6,124.4H157V91.9h97.6V124.4L254.6,124.4z
			 M167,81.1l13.6-10.8H231l13.6,10.8h-77.5l0,0H167z"/>
		<path class="st0" d="M232.9,113.6h5.4c3,0,5.4-2.4,5.4-5.4s-2.4-5.4-5.4-5.4h-5.4c-3,0-5.4,2.4-5.4,5.4S229.9,113.6,232.9,113.6z"
			/>
	</g>
</g>
</svg>
