<?xml version="1.0" encoding="utf-8"?>
<!-- Generator: Adobe Illustrator 28.1.0, SVG Export Plug-In . SVG Version: 6.00 Build 0)  -->
<svg version="1.1" id="Capa_2_00000015338498855659903100000007553249886942223797_"
	 xmlns="http://www.w3.org/2000/svg" xmlns:xlink="http://www.w3.org/1999/xlink" x="0px" y="0px" viewBox="0 0 400.7 400.7"
	 style="enable-background:new 0 0 400.7 400.7;" xml:space="preserve">
<style type="text/css">
	.st0{fill:#023629;}
</style>
<g id="Capa_2-2">
	<path class="st0" d="M349.2,400.7H51.5C23.1,400.7,0,377.6,0,349.2V51.5C0,23.1,23.1,0,51.5,0h297.6c28.4,0,51.5,23.1,51.5,51.5
		v297.6C400.7,377.6,377.6,400.7,349.2,400.7z M51.5,18C33,18,18,33,18,51.5v297.6c0,18.5,15,33.5,33.5,33.5h297.6
		c18.5,0,33.5-15,33.5-33.5V51.5c0-18.5-15-33.5-33.5-33.5H51.5z"/>
	<path class="st0" d="M325.1,142.3c-8.4,0.8-8.1,4.5-14.9,7.2c-4.4-13.5-11.2-28.4-18.8-40.3c-9.8-15.3-14.2-17-32.2-20.5
		c-30.4-6-106.5-7.7-134.2,4.6c-17.4,7.8-26.5,40.6-36.3,56.2c-3.6-3.9-5.8-6.5-11.4-7.1c-6.5-0.8-25.3-1.6-28.2,4.6
		c-8,17.5,16.6,16.2,26,21.8c-10.4,14.1-20.8,21.2-22.6,40.1c-3.1,31.7,1.4,68.2,0.5,100.3c1.6,3.8,4.6,6.3,8.7,7
		c5.3,0.8,31.8,0.9,36.3-0.5c9.9-3.1,6.6-17,7.1-25h187.3c0.3,0,0.8-1,1.4-1.1c5.5,0.5-3.2,22.2,9.2,26.1c4.4,1.4,31.2,1.4,36.3,0.5
		c2.8-0.5,6.8-2.3,7.6-5.2l0.2-107.9c-2.2-14.8-14.5-23.6-22.7-35c9.1-3.1,32.6-4.6,28.2-18.9C350,140.3,332.6,141.6,325.1,142.3
		L325.1,142.3z M89,228.9c-21.6-4-20.7-34.5,0-37.8C118.9,186.4,133.6,237.1,89,228.9z M107.1,160.9c-1.9,0.1-3.2,0.8-4.9,1.5
		c-0.9-1.2,9.9-24.1,11.6-27.6c6.9-14.4,10-27.6,26.8-31.6c25.4-6.1,93-5.9,118.6-0.2c10,2.2,11.7,2.9,17,11.4
		c8.6,13.7,14.6,31.5,22.5,45.8c-1.9,3.1-2.5,1.2-3.9,1.1c-43.6-1.5-84.9-6.4-129.3-4.8C146.2,157.3,126.5,159.5,107.1,160.9
		L107.1,160.9z M234,254.4c0,2-1.6,3.6-3.6,3.6h-59.6c-2,0-3.6-1.6-3.6-3.6v-12.6c0-2,1.6-3.6,3.6-3.6h59.6c2,0,3.6,1.6,3.6,3.6
		L234,254.4L234,254.4z M308,229.3c-38.1,4.2-27.1-34.4-3.9-38.1C330.9,186.8,338,226,308,229.3z"/>
</g>
</svg>
