<?xml version="1.0" encoding="UTF-8"?>
<svg id="Capa_2" data-name="Capa 2" xmlns="http://www.w3.org/2000/svg" viewBox="0 0 383.26 383.29">
  <defs>
    <style>
      .cls-1 {
        fill: #e28412;
        stroke-width: 0px;
      }
    </style>
  </defs>
  <g id="Capa_1-2" data-name="Capa 1-2">
    <path class="cls-1" d="M361.94,184.89c-5.86-10.89-20.07-3.81-29.82-5.36-5.68-6.22-7.44-21.92-17.32-23.1-8.31-.99-18.13,1.71-26.62,1.19l-50.18-29.19c-2.09-2.88.11-8.23.06-11.29-.89-51.5-41.61-86.22-91.73-85.74-8.81.08-19.27-.54-27.7,0-7.32.47-13.84,3.44-21.3.78V8.61c0-.3-2.55-4.8-2.98-5.26-1.49-1.61-3.85-1.71-5.26-3.35h-5.99c-13.05,5.4-6.75,20.98-8.31,32.11C2.23,41.69-26.69,134.11,29.61,182.62c6.97,6,14.87,10.02,22.69,14.74l.08,160.11c.06,2.24,1.53,5.8,3.02,7.46,1.63,1.81,24.84,17.01,27.17,17.74,4.54,1.43,8.33.35,11.76-2.79,10.27-15.54,28.35-30.48,38.06-45.78,7.3-11.5-5.95-19.75-10.24-29.68,3.43-6.62,13.73-16.4,12.56-24.04-.96-6.3-12.01-17.68-14.93-24v-52.77l15.34-.02,82.01,141.07c1.53,1.06,3.11,2.12,4.99,2.49,5.16,1.02,14.58,1.53,20.01,1.7,13.29.4,18.06,1.41,21.13-12.62,3.24-14.81,8.03-38.29,9.12-53,1.09-14.7-12.86-15.29-22.98-21.36-1.46-7.22,2.99-19.69-.56-26.02-3.48-6.21-19.89-11.09-26.12-15.05l-19.86-34.41,141.61,81.07c2.51,1.02,4.57.49,7.02-.2,3.49-.99,26.91-12.48,28.79-14.62,1.28-1.46,1.44-3.6,2.98-4.88v-5.99l-21.34-56.88h.02ZM117.77,172.77c-6.81,3.88-18.36,5.26-20.11,13.58l-.27,75.2c.7,4.96,12.81,19.13,12.54,20.89-3.29,6.51-13.33,15.87-12.64,23.34.49,5.41,12.33,18.68,11.89,20.85l-24.97,30.45c-.86-.02-10.08-5.64-9.38-7.84l-.3-162.89c-1.75-8.32-13.3-9.7-20.11-13.58C2.6,143.23,17.23,65.49,74.88,54.64v21.71c-15.1-3.54-21.03,18.47-6.76,22.1,4.32,1.1,28.96,1,34.1.37,16.03-1.96,11.5-25.95-4.88-22.47v-21.71c57.65,10.84,72.25,88.6,20.44,118.12h-.01ZM205.55,235.74c5.1,6.54,15.31,7.91,21.7,12.78.58,7.41-3.48,19.82.75,26.16,3.86,5.79,15.4,7.84,20.94,11.97l-7.47,39.53-10.52-1.31-81.61-141.45-4.08-3.4c34.01-31.52,35.61-85.44,5.23-120.13,34.06,14.82,47.42,56.3,29.32,88.82-5.26,9.46-15.02,14-9.72,25.93,8.92,20.09,25.81,40.87,35.47,61.09h0ZM347.85,243.87l-142.52-82.02-6.94-.18c14.82-25.59,15.83-56.43,3-83.08,2.39,1.75,4.17,4.93,5.62,7.47,4.96,8.67,8.61,21.08,8.62,31.11,0,8.84-6.02,19.48,2.59,25.79l64.72,37.08,23.23-.82c4.67,6.14,7.37,20.76,15.18,23.04,6.24,1.83,16.34-.63,22.98-.92l13.44,38.12-9.92,4.39v.02Z"/>
  </g>
</svg>