<?xml version="1.0" encoding="utf-8"?>
<!-- Generator: Adobe Illustrator 28.1.0, SVG Export Plug-In . SVG Version: 6.00 Build 0)  -->
<svg version="1.1" id="Capa_2_00000035523114116727423290000014147879991816615850_"
	 xmlns="http://www.w3.org/2000/svg" xmlns:xlink="http://www.w3.org/1999/xlink" x="0px" y="0px" viewBox="0 0 386.8 386.6"
	 style="enable-background:new 0 0 386.8 386.6;" xml:space="preserve">
<style type="text/css">
	.st0{fill:#E28412;}
</style>
<g id="Capa_1-2">
	<g>
		<path class="st0" d="M59.4,54.5l268.8,0.2l4,4v268.6l-4.9,4.9H59.6l-4.9-4.9L54.3,61.8C54.1,58.3,56,55.4,59.4,54.5L59.4,54.5z
			 M317.5,69.3H69.4v246.8h248.1L317.5,69.3L317.5,69.3z"/>
		<path class="st0" d="M355.4,316.8c4.4-0.8,23.4-0.7,27,0.9c7,3.1,5.1,13.6-2.5,14.8c-4,0.6-22.4,0.6-26.1-0.4
			C345.8,330,346.7,318.4,355.4,316.8z"/>
		<path class="st0" d="M8.9,316.9c4.7-0.6,20.7-1,24.6,0.6c7.5,3,6.6,13.8-1.9,15.1c-3.6,0.6-23.1,0.6-26.1-0.3
			C-2.6,329.7-2.1,318.3,8.9,316.9L8.9,316.9z"/>
		<path class="st0" d="M59.4,0.4c3.9-0.9,9.1,0.2,10,4.7C70,8.4,69.9,30,69.2,33.3c-1.5,6.6-12.2,7-14.4,0.6c-1-2.9-1-24.1-0.4-27.8
			C54.8,3.4,56.7,1,59.4,0.4L59.4,0.4z"/>
		<path class="st0" d="M61.2,347.8c2.5-0.2,6.8,2,7.8,4.3c0.8,2,0.9,26.5,0.3,29.5c-1.5,6.8-12.4,6.5-14.5-0.2
			c-0.9-2.8-0.9-24.6-0.2-27.8C55.1,350.8,58.3,348.1,61.2,347.8z"/>
		<path class="st0" d="M324.4,347.8c3.1-0.3,6.9,2.2,7.8,5.1s0.9,24.6,0.2,27.8c-1.7,7.5-14,8.9-14.9-1.5c-0.5-5-0.8-21.3,0.1-25.7
			C318,350.8,321.9,348.1,324.4,347.8L324.4,347.8z"/>
		<path class="st0" d="M330.5,36.2c-3.8,3.8-11.6,2.5-12.8-3C316.9,29.6,317,10,317.6,6c1.3-8.2,13.3-7.6,14.8-0.8
			c0.9,3.8,0.8,22.1,0.2,26.4C332.4,33.4,331.7,35.1,330.5,36.2L330.5,36.2z"/>
		<path class="st0" d="M2.3,67.3c-3.9-3.5-2.4-11.6,3-12.8c3.2-0.7,24.8-0.8,28.2-0.2c6.7,1.3,6.8,13.3-0.2,14.9
			c-3.9,0.9-21.1,0.7-25.5,0.2C6.1,69.2,3.5,68.4,2.3,67.3z"/>
		<path class="st0" d="M384.6,67.3c-1.2,1.1-3.8,1.9-5.5,2.1c-4.5,0.5-21.6,0.7-25.5-0.2c-7-1.6-6.9-13.6-0.2-14.9
			c3.3-0.6,24.9-0.5,28.1,0.2C387.1,55.7,388.5,63.8,384.6,67.3z"/>
		<path class="st0" d="M130.5,182.8c11.4-17.5,41.2-21.2,49.6,0.9c14.4-22.1,50.3-21.5,53.9,8.5c0.9,7.6,0,15.5,0,22.9
			c0.1,11.6,0.6,23.4,0.6,34.9c0,1-0.1,1.1-1,1.8h-22.6v-49.2c0-2.2-2.5-10.1-4-11.9c-3.4-4.2-12-4.9-16.3-2.2
			c-2.5,1.6-8,8.8-8,11.5v51.9h-23.9v-51c0-0.5-1.6-6-1.9-6.9c-3.2-8-15.1-9.3-21-3.6c-1.7,1.6-5.4,8.4-5.4,10.6v51h-23.9v-81.5
			h23.9L130.5,182.8L130.5,182.8z"/>
		<path class="st0" d="M266.1,187.2h27.5v11.5h-42.1c-3.5-8.6,2.6-18.9,8.8-24.8c6.8-6.4,24.2-14.1,18.1-26c-5.2-10-20.7,2.3-22,1.7
			l-6.1-7.3c6.8-10.2,29.3-12.8,38.1-4.3c7.5,7.3,6.6,18.8,1.1,26.8C283.1,173.9,270.2,177,266.1,187.2L266.1,187.2z"/>
	</g>
</g>
</svg>
