<?xml version="1.0" encoding="utf-8"?>
<!-- Generator: Adobe Illustrator 28.1.0, SVG Export Plug-In . SVG Version: 6.00 Build 0)  -->
<svg version="1.1" id="Capa_2_00000031186953780696334420000009859034711555566271_"
	 xmlns="http://www.w3.org/2000/svg" xmlns:xlink="http://www.w3.org/1999/xlink" x="0px" y="0px" viewBox="0 0 356.7 310.9"
	 style="enable-background:new 0 0 356.7 310.9;" xml:space="preserve">
<style type="text/css">
	.st0{fill:#E28412;}
</style>
<g id="Capa_2-2">
	<g>
		<path class="st0" d="M334.5,239.4c14-19.4,21.7-42.3,22.2-66.3c-0.3-27.9-18.2-53-44.5-62.3c-26-9.2-55.3-1.3-73.1,19.7h-10.2
			c13.4-15.9,28-40.1,28-69.6C256.8,27.3,229.5,0,196,0s-60.9,27.3-60.9,60.8c0,29.5,14.6,53.7,28,69.6H132
			c-6.9-33.2-37.2-55.8-71.1-52.8C26.4,80.6,0.2,109,0,143.8c0.8,27.8,11.2,54.7,29.3,75.8L15,259.7c-0.1,0.3-0.2,0.6-0.4,0.9
			L3.3,292.3c-0.7,1.9-0.9,4-0.7,6c0,0.2,0,0.4,0,0.6c0,0,0,0.1,0,0.1c0,0.2,0,0.5,0.1,0.9c1.4,6.3,7.1,10.9,13.5,10.9h324.1
			c4.5,0,8.7-2.2,11.3-5.9s3.2-8.4,1.7-12.6L334.5,239.4L334.5,239.4z M196.9,295H38.4l79.2-34.2L196.9,295z M290,263.6
			c-13.5-10.8-50.8-44.8-50.8-90.5c0.2-27.7,22.9-50.2,50.6-50.2c0.1,0,0.1,0,0.2,0h0c0.1,0,0.1,0,0.2,0c27.7,0,50.4,22.5,50.6,50.2
			C340.8,218.8,303.5,252.8,290,263.6L290,263.6z M230.8,211.9c16.4,42.1,54.3,67.9,54.7,68.2c2.7,1.9,6.3,1.9,9,0
			c10.4-7.5,19.9-16.2,28.4-25.9l14.5,40.8h-31l-134.1-57.9L230.8,211.9L230.8,211.9z M51.3,242.1l-15.5,6.6l5.6-15.8
			C44.6,236.1,47.9,239.2,51.3,242.1z M104.5,219.1c7.6-9.4,13.9-19.7,19-30.7l26.1,11.2C149.6,199.6,104.5,219.1,104.5,219.1z
			 M66.7,234.2c-13.5-10.8-50.8-44.8-50.8-90.5c0.2-27.7,22.8-50.2,50.6-50.2c0.1,0,0.2,0,0.2,0h0c0.1,0,0.2,0,0.2,0
			c27.7,0,50.4,22.5,50.6,50.2C117.5,189.4,80.2,223.4,66.7,234.2L66.7,234.2z M69.8,251.5l0.2-0.1c0.1-0.1,0.2-0.1,0.3-0.2
			c0.2-0.1,0.5-0.2,0.7-0.4l0.2-0.1c6.9-4.9,13.5-10.5,19.5-16.5l6.3,2.7c2,0.9,4.3,0.9,6.3,0l69.5-30c2.9-1.3,4.8-4.1,4.8-7.3
			s-1.9-6.1-4.8-7.3L129,173.4c1.1-3.8,2-7.6,2.7-11.5l69.4,30c2,0.9,4.3,0.9,6.3,0l16.5-7.1c0.5,4,1.1,7.9,2.1,11.8l-77,33.1
			c-2.9,1.3-4.8,4.1-4.8,7.3s1.9,6.1,4.8,7.3L266.3,295h-29.2l-116.3-50.2c-2-0.9-4.3-0.9-6.3,0l-91.3,39.4l5.3-15L69.8,251.5
			L69.8,251.5z M196,140.2c-12.1-9.7-44.9-39.6-44.9-79.3c0.3-24.2,20.2-43.8,44.4-43.8c0.2,0,0.3,0,0.5,0h0.1c0.2,0,0.3,0,0.5,0
			c24.2,0,44.1,19.5,44.4,43.8C240.9,100.6,208.1,130.5,196,140.2L196,140.2z M200.5,156.7c4.5-3.2,8.9-6.7,12.9-10.4H229
			c-3,6.8-4.9,13.9-5.4,21.3l-19.2,8.3l-68.5-29.6h42.6c4.1,3.7,8.4,7.2,13,10.4C194.2,158.6,197.7,158.6,200.5,156.7L200.5,156.7z"
			/>
		<path class="st0" d="M66.7,106.9c-20.6,0-37.3,16.8-37.3,37.3s16.8,37.3,37.3,37.3c20.6,0,37.3-16.8,37.3-37.3l0,0
			C104.1,123.7,87.3,106.9,66.7,106.9L66.7,106.9z M66.7,165.7c-5.7,0-11.1-2.2-15.1-6.3c-4-4.1-6.3-9.4-6.3-15.1
			c0-11.8,9.6-21.4,21.4-21.4s21.4,9.6,21.4,21.4S78.5,165.7,66.7,165.7L66.7,165.7z"/>
		<path class="st0" d="M196,30.5c-17.4,0-31.5,14.1-31.5,31.5s14.1,31.5,31.5,31.5c17.3,0,31.4-14.1,31.5-31.5l0,0
			C227.5,44.7,213.3,30.6,196,30.5L196,30.5z M211.5,62c0,8.6-7,15.5-15.5,15.5s-15.5-7-15.5-15.5s7-15.5,15.5-15.5
			S211.5,53.4,211.5,62z"/>
		<path class="st0" d="M290,136.3c-20.6,0-37.3,16.8-37.3,37.4c0,20.6,16.8,37.3,37.3,37.3l0,0c20.6,0,37.3-16.8,37.3-37.3
			S310.6,136.3,290,136.3L290,136.3z M311.4,173.7c0,11.8-9.6,21.4-21.4,21.4s-21.4-9.6-21.4-21.4s9.6-21.4,21.4-21.4
			S311.4,161.9,311.4,173.7z"/>
	</g>
</g>
</svg>
