<?xml version="1.0" encoding="utf-8"?>
<!-- Generator: Adobe Illustrator 28.1.0, SVG Export Plug-In . SVG Version: 6.00 Build 0)  -->
<svg version="1.1" id="Capa_2_00000115515780235799825160000012883970909003516321_"
	 xmlns="http://www.w3.org/2000/svg" xmlns:xlink="http://www.w3.org/1999/xlink" x="0px" y="0px" viewBox="0 0 400.7 400.7"
	 style="enable-background:new 0 0 400.7 400.7;" xml:space="preserve">
<style type="text/css">
	.st0{fill:#023629;}
</style>
<g id="Capa_2-2">
	<path class="st0" d="M349.2,400.7H51.5C23.1,400.7,0,377.6,0,349.2V51.5C0,23.1,23.1,0,51.5,0h297.6c28.4,0,51.5,23.1,51.5,51.5
		v297.6C400.7,377.6,377.6,400.7,349.2,400.7z M51.5,18C33,18,18,33,18,51.5v297.6c0,18.5,15,33.5,33.5,33.5h297.6
		c18.5,0,33.5-15,33.5-33.5V51.5c0-18.5-15-33.5-33.5-33.5H51.5z"/>
	<g>
		<path class="st0" d="M353.5,225.2v-73.5c0-12.7-10.3-23-23-23h-88.8c-12.7,0-22.9,10.2-23,22.9v72.1c-8.8,8-13.8,19.4-13.8,31.2
			v20.7h-16.8c0-13.9,1.7-33.6-7.5-44.9v-78.9c0-12.8-10.3-23.1-23.1-23.2h-87c-12.8,0-23.2,10.4-23.2,23.2l0,0v73.5
			C39.4,233.3,35,244,35,255.1v51.4c0.4,8,9.2,6.1,14.5,6.1v16.1c0,3.4,2.7,6.1,6.1,6.1h22.2c3.4,0,6.1-2.7,6.1-6.1v-16.4h57.4v16.4
			c0,3.4,2.7,6.1,6.1,6.1h22.2c3.4,0,6.1-2.7,6.1-6.1v-16.4h51.3v16.4c0,3.4,2.7,6.1,6.1,6.1h22.2c3.4,0,6.1-2.7,6.1-6.1v-16.4h51.3
			v16.4c0,3.4,2.7,6.1,6.1,6.1h22.2c3.4,0,6.1-2.7,6.1-6.1v-16.4h12.2c3.4,0,6.1-2.7,6.1-6.1v-51.3
			C365.7,243.8,361.3,233.1,353.5,225.2L353.5,225.2z M231,151.7c0-5.9,4.8-10.7,10.7-10.7h88.8c5.9,0,10.6,4.8,10.7,10.7v64.9
			c-3.9-1.8-8-3-12.2-3.6v-7.3c0-15.4-12.5-28-28-28h-35.8c-15.5,0-28.1,12.5-28.1,28l0,0v8.1c-2.1,0.5-4.1,1.2-6.1,2L231,151.7
			L231,151.7z M316.7,212.4h-67.4v-6.8c0-8.7,7.1-15.7,15.7-15.7h35.8c8.7-0.1,15.8,6.9,15.9,15.6c0,0,0,0.1,0,0.1L316.7,212.4
			L316.7,212.4z M217.2,254.9c0-15.7,12.2-28.8,27.9-29.9h77.8c16.5-0.4,30.2,12.6,30.6,29c0,0.3,0,0.6,0,0.9v20.7H217.2
			L217.2,254.9L217.2,254.9z M70.2,140.9h87.3c6.1,0,11,4.9,11,11v67.4c-3.4-2.2-7.1-3.9-11-5v-8.4c0-15.5-12.6-28.1-28.1-28.1H99.2
			c-15.5,0-28.1,12.6-28.1,28.1v7.2c-4,0.6-8,1.8-11.6,3.5v-64.6c0-6.1,4.9-11,11-11l0,0L70.2,140.9L70.2,140.9z M145.2,212.4H83.4
			v-6.7c0-8.8,7.1-15.8,15.9-15.9h30.1c8.8,0,15.9,7.1,15.9,15.9c0,0,0,0,0,0.1L145.2,212.4L145.2,212.4z M47.2,254.8
			c0-16.6,13.4-30.1,30-30.1h68.6c16.6,0,30,13.5,30,30.1l0,0v20.8H47.2V254.8z M71.7,322.2h-10v-9.8h10V322.2z M163.6,322.2h-10
			v-9.8h10V322.2z M249.3,322.2h-10v-9.8h10V322.2z M335.1,322.2h-10v-9.8h10V322.2z M353.5,300H47.2v-12.2h306.2V300z"/>
		<path class="st0" d="M174.4,111.6h6.1c-0.4,1.5-0.6,3-0.7,4.5c0.6,9.2,8.5,16.2,17.7,15.7c8.4-0.5,15.2-7.2,15.7-15.7
			c0-1.5-0.3-3-0.7-4.5h6.1c3.4,0.1,6.2-2.6,6.3-6c0-0.5,0-1.1-0.2-1.6l-8.1-33.6c-0.7-2.8-3.2-4.8-6.1-4.7h-25
			c-2.6,0-5,1.7-5.8,4.2l-11.1,33.6c-1.1,3.2,0.7,6.7,3.9,7.7C173.1,111.5,173.8,111.6,174.4,111.6L174.4,111.6z M201.3,116.1
			c-0.3,2.4-2.5,4.2-5,3.9c-2.1-0.2-3.7-1.9-3.9-3.9c0.3-2.4,2.5-4.2,5-3.9C199.4,112.4,201,114,201.3,116.1z M190,78h16.5l5.2,21.4
			H183L190,78z"/>
	</g>
</g>
</svg>
