<?xml version="1.0" encoding="utf-8"?>
<!-- Generator: Adobe Illustrator 28.1.0, SVG Export Plug-In . SVG Version: 6.00 Build 0)  -->
<svg version="1.1" id="Capa_2_00000020360597753955875520000002770741623407491229_"
	 xmlns="http://www.w3.org/2000/svg" xmlns:xlink="http://www.w3.org/1999/xlink" x="0px" y="0px" viewBox="0 0 400.7 400.7"
	 style="enable-background:new 0 0 400.7 400.7;" xml:space="preserve">
<style type="text/css">
	.st0{fill:#023629;}
</style>
<g id="Capa_2-2">
	<path class="st0" d="M349.2,400.7H51.5C23.1,400.7,0,377.6,0,349.2V51.5C0,23.1,23.1,0,51.5,0h297.6c28.4,0,51.5,23.1,51.5,51.5
		v297.6C400.7,377.6,377.6,400.7,349.2,400.7z M51.5,18C33,18,18,33,18,51.5v297.6c0,18.5,15,33.5,33.5,33.5h297.6
		c18.5,0,33.5-15,33.5-33.5V51.5c0-18.5-15-33.5-33.5-33.5H51.5z"/>
	<g id="_85_Bedroom">
		<path class="st0" d="M353.1,157.4h-21.3v-12.6h3.1c6.2,0,10.9-5.8,9.6-11.9l-3.1-14.6l0,0c-1-4.5-5-7.8-9.6-7.8h-10.1
			c-4.6,0-8.6,3.3-9.6,7.8l-3.1,14.6c-1.3,6.1,3.3,11.9,9.6,11.9h3.1v12.6h-22.1v-56.7c0-13.5-11-24.5-24.5-24.5h-147
			c-13.5,0-24.5,11-24.5,24.5v56.7H79v-12.6h3.1c6.2,0,10.9-5.7,9.6-11.9l-3.1-14.6c-1-4.5-5-7.8-9.6-7.8H68.9
			c-4.6,0-8.6,3.3-9.6,7.8l0,0l-3.1,14.6c-1.3,6.1,3.4,11.9,9.6,11.9h3.1v12.6H47.6c-5.9,0-10.7,4.8-10.7,10.7v30.8
			c0,5.9,4.8,10.7,10.7,10.7h3.5v6.3c0,2.8,2.3,5.1,5.1,5.1s5.1-2.3,5.1-5.1v-6.3h26.1L69,243c-0.5,0.9-0.5,1.9-0.6,2.4v36.9
			c-4.5,1.6-7.8,5.8-7.8,10.9v19.7c0,6.4,5.2,11.5,11.5,11.5h254.1c6.4,0,11.5-5.2,11.5-11.5v-19.7c0-5-3.2-9.3-7.8-10.9v-36.9
			c-0.1-0.5-0.1-1.6-0.6-2.4l-18.3-33.3h28.2v6.3c0,2.8,2.3,5.1,5.1,5.1s5.1-2.3,5.1-5.1v-6.3h3.5c5.9,0,10.7-4.8,10.7-10.7v-30.8
			C363.9,162.2,359.1,157.4,353.1,157.4L353.1,157.4L353.1,157.4z M321.7,120.8h9.8l3,13.9H319L321.7,120.8L321.7,120.8z
			 M69.2,120.7l9.4-0.3l3,14.2H66.2L69.2,120.7L69.2,120.7z M92,222.3h214.6l9.9,18.1H82.1L92,222.3L92,222.3z M78.6,250.5H320v31.2
			H78.6V250.5L78.6,250.5z M97.5,212.1l25.5-46.5c2.5-4.2,7.1-6.9,12-6.9c0.7,6.1,5.8,10.9,12,10.9h29.1c6.3,0,11.4-4.8,12-10.9
			h22.2c0.6,6.1,5.8,10.9,12,10.9h29.1c6.3,0,11.4-4.8,12-10.9c4.9,0.1,9.4,2.7,12,6.9l25.5,46.6H97.5z M145,157.4v-7.6
			c0-1.1,0.9-2,2-2h29.1c1.1,0,2,0.9,2,2v7.6c0,1.1-0.9,2-2,2H147C145.9,159.4,145,158.5,145,157.4z M220.4,157.4v-7.6
			c0-1.1,0.9-2,2-2h29.1c1.1,0,2,0.9,2,2v7.6c0,1.1-0.9,2-2,2h-29.1C221.3,159.4,220.4,158.5,220.4,157.4z M128.1,86.4h147
			c7.9,0,14.3,6.4,14.3,14.3v69.2l-5.1-9.3c0-0.1-0.1-0.1-0.1-0.2c-4.3-7.3-12.2-11.8-20.7-11.9c-0.6-6.1-5.8-10.9-12.1-10.9h-29.1
			c-6.3,0-11.4,4.8-12.1,10.9h-22.2c-0.6-6.1-5.8-10.9-12.1-10.9H147c-6.3,0-11.4,4.8-12.1,10.9c-8.5,0.1-16.4,4.6-20.8,12.1
			l-0.4,0.7v-60.6C113.8,92.8,120.2,86.4,128.1,86.4L128.1,86.4L128.1,86.4z M47.5,199.5c-0.3,0-0.6-0.2-0.6-0.6v-30.8
			c0-0.3,0.2-0.6,0.6-0.6h53.3V185l-8,14.6L47.5,199.5L47.5,199.5z M327.7,312.9c0,0.8-0.6,1.4-1.4,1.4H72.2c-0.8,0-1.4-0.6-1.4-1.4
			v-19.7c0-0.8,0.6-1.4,1.4-1.4h254.1c0.8,0,1.4,0.6,1.4,1.4V312.9z M353.7,198.9c0,0.3-0.2,0.6-0.6,0.6h-47.5l-5.8-10.6v-21.3h53.3
			c0.3,0,0.6,0.2,0.6,0.6V198.9L353.7,198.9z"/>
	</g>
</g>
</svg>
