<?xml version="1.0" encoding="utf-8"?>
<!-- Generator: Adobe Illustrator 28.1.0, SVG Export Plug-In . SVG Version: 6.00 Build 0)  -->
<svg version="1.1" id="Capa_2_00000009552502711163363540000017181936404267688857_"
	 xmlns="http://www.w3.org/2000/svg" xmlns:xlink="http://www.w3.org/1999/xlink" x="0px" y="0px" viewBox="0 0 400.7 400.7"
	 style="enable-background:new 0 0 400.7 400.7;" xml:space="preserve">
<style type="text/css">
	.st0{fill:#023629;}
</style>
<g id="Capa_2-2">
	<path class="st0" d="M349.2,400.7H51.5C23.1,400.7,0,377.6,0,349.2V51.5C0,23.1,23.1,0,51.5,0h297.6c28.4,0,51.5,23.1,51.5,51.5
		v297.6C400.7,377.6,377.6,400.7,349.2,400.7z M51.5,18C33,18,18,33,18,51.5v297.6c0,18.5,15,33.5,33.5,33.5h297.6
		c18.5,0,33.5-15,33.5-33.5V51.5c0-18.5-15-33.5-33.5-33.5H51.5z"/>
	<g>
		<path class="st0" d="M337.7,208.2h-7.5v-58.7h24.4c2.9,0,5.7-1.4,7.5-3.7s2.5-5.3,1.8-8.2L349.2,77c-1-4.3-4.9-7.3-9.3-7.3h-38.6
			c-4.4,0-8.3,3-9.3,7.3l-14.7,60.7c-0.7,2.9,0,5.9,1.8,8.2s4.6,3.7,7.5,3.7h24.4v23c-4.4-2.7-9.5-4.3-15-4.3H104.8
			c-15.9,0-28.8,12.9-28.8,28.8v11.1H63c-14.6,0-26.5,11.9-26.5,26.5v86.6c0,14.6,11.9,26.5,26.5,26.5h274.6
			c14.6,0,26.5-11.9,26.5-26.5v-86.6C364.1,220.1,352.3,208.2,337.7,208.2L337.7,208.2z M63,328.6c-4,0-7.3-3.3-7.3-7.3v-86.6
			c0-4,3.3-7.3,7.3-7.3h34.3c4,0,7.3,3.3,7.3,7.3v86.6c0,4-3.3,7.3-7.3,7.3H63z M104.8,187.5h191.1c5.3,0,9.6,4.3,9.6,9.6v11.1h-2.1
			c-14.6,0-26.5,11.9-26.5,26.5v33.7H123.8v-33.7c0-14.6-11.9-26.5-26.5-26.5h-2.1v-11.1C95.2,191.8,99.5,187.5,104.8,187.5
			L104.8,187.5z M123.8,321.3v-33.7h153.2v33.7c0,2.5,0.4,5,1,7.3H122.7C123.4,326.3,123.7,323.9,123.8,321.3L123.8,321.3z
			 M296.1,321.3v-86.6c0-4,3.3-7.3,7.3-7.3h34.3c4,0,7.3,3.3,7.3,7.3v86.6c0,4-3.3,7.3-7.3,7.3h-34.3
			C299.4,328.6,296.1,325.3,296.1,321.3z M332.3,88.9l10,41.5h-43.6l10-41.5L332.3,88.9L332.3,88.9z"/>
		<path class="st0" d="M58.4,136.9h162.4c5.3,0,9.6-4.3,9.6-9.6V62.5c0-5.3-4.3-9.6-9.6-9.6H58.4c-5.3,0-9.6,4.3-9.6,9.6v64.8
			C48.8,132.6,53.1,136.9,58.4,136.9z M68,72.1h143.2v45.6H68V72.1z"/>
	</g>
</g>
</svg>
