<?xml version="1.0" encoding="utf-8"?>
<!-- Generator: Adobe Illustrator 28.1.0, SVG Export Plug-In . SVG Version: 6.00 Build 0)  -->
<svg version="1.1" id="Capa_2_00000025410353231709128860000014163063701111276164_"
	 xmlns="http://www.w3.org/2000/svg" xmlns:xlink="http://www.w3.org/1999/xlink" x="0px" y="0px" viewBox="0 0 346.7 257"
	 style="enable-background:new 0 0 346.7 257;" xml:space="preserve">
<style type="text/css">
	.st0{fill:#E28412;}
</style>
<g id="Capa_2-2">
	<g>
		<path class="st0" d="M322.8,18.5V12c0-6.6-5.4-12-12-12h-23.9c-6.6,0-12,5.3-12,12v6h-12v-6c0-6.6-5.4-12-12-12h-23.9
			c-6.6,0-12,5.3-12,12v6H29.9C13.4,18,0,31.3,0,47.8v149.4c0,14.2,10,26.4,23.9,29.3v6.6c0,6.6,5.4,12,12,12h23.9
			c6.6,0,12-5.4,12-12v-6h12v6c0,6.6,5.3,12,12,12h23.9c6.6,0,12-5.4,12-12v-5.5c3.4,0.8,6.4,2.4,8.9,4.9l20.3,19.3
			c3.3,3.4,7.9,5.2,12.6,5.3s9.3-1.8,12.6-5.2l24-22.9c1.1-1.1,2.7-1.8,4.3-1.8h102.6c16.5,0,29.9-13.4,29.9-29.9V47.8
			C346.7,33.6,336.7,21.4,322.8,18.5L322.8,18.5z M286.9,12h23.9v33.4l-6,6v-3.5c0-6.6-5.4-12-12-12h-6L286.9,12L286.9,12z
			 M227.2,12h23.9v33.4l-6,6v-3.5c0-6.6-5.4-12-12-12h-6L227.2,12L227.2,12z M59.8,233.1H35.9v-33.4l6-6v3.5c0,6.6,5.3,12,12,12h6
			L59.8,233.1L59.8,233.1z M119.6,233.1H95.6v-33.4l6-6v3.5c0,6.6,5.3,12,12,12h6L119.6,233.1L119.6,233.1z M334.8,197.3
			c0,9.9-8,17.9-17.9,17.9H214.2c-4.7,0-9.3,1.8-12.6,5.2l-24,22.9c-1.1,1.1-2.7,1.8-4.3,1.7c-1.6,0-3.1-0.7-4.2-1.8l-20.3-19.3
			c-4.6-4.6-10.7-7.6-17.2-8.5v-6.2c0-6.6-5.3-12-12-12h-6v-17.9c0-2.4-1.5-4.6-3.7-5.5s-4.8-0.4-6.5,1.3L85.5,193
			c-1.1,1.1-1.8,2.6-1.8,4.2v17.9h-12v-6c0-6.6-5.3-12-12-12h-6v-17.9c0-2.4-1.5-4.6-3.7-5.5s-4.8-0.4-6.5,1.3L25.7,193
			c-1.1,1.1-1.8,2.6-1.8,4.2v16.9c-7.2-2.5-11.9-9.3-12-16.9V47.8c0-9.9,8-17.9,17.9-17.9h185.3v6c0,6.6,5.4,12,12,12h6v17.9
			c0,2.4,1.5,4.6,3.7,5.5c0.7,0.3,1.4,0.4,2.1,0.4c0.1,0,0.1,0,0.2,0s0.2-0.1,0.4-0.1c0.5,0,1-0.1,1.5-0.3c0.2-0.1,0.4-0.1,0.6-0.2
			c0.7-0.3,1.3-0.7,1.8-1.2L261.3,52c1.1-1.1,1.7-2.6,1.7-4.2V29.9h12v6c0,6.6,5.4,12,12,12h6v17.9c0,2.4,1.5,4.6,3.7,5.5
			c0.7,0.3,1.4,0.4,2.1,0.4c0.1,0,0.1,0,0.2,0s0.2-0.1,0.4-0.1c0.5,0,1-0.1,1.5-0.3c0.2-0.1,0.4-0.1,0.6-0.2
			c0.7-0.3,1.3-0.7,1.8-1.2L321.1,52c1.1-1.1,1.7-2.6,1.7-4.2V30.9c7.2,2.5,12,9.3,12,16.9L334.8,197.3L334.8,197.3z"/>
		<path class="st0" d="M203.9,148.4l-4.2-24.3l17.6-17.2c1.6-1.6,2.2-4,1.5-6.1c-0.7-2.2-2.6-3.7-4.8-4.1l-24.4-3.6l-10.9-22.1
			c-1.1-1.9-3.1-3.1-5.4-3.1s-4.2,1.2-5.4,3.1l-10.9,22.1l-24.4,3.6c-2.2,0.3-4.1,1.9-4.8,4.1s-0.1,4.5,1.5,6.1l17.6,17.2l-4.2,24.3
			c-0.4,2.2,0.5,4.5,2.4,5.9c1.8,1.3,4.3,1.5,6.3,0.4l21.8-11.5l21.8,11.5c2,1.1,4.5,0.9,6.3-0.4S204.2,150.7,203.9,148.4
			L203.9,148.4z M189.1,117.8c-1.4,1.4-2.1,3.3-1.7,5.3l2.6,15.4l-13.9-7.3c-1.7-0.9-3.8-0.9-5.6,0l-13.9,7.3l2.6-15.4
			c0.3-1.9-0.3-3.9-1.7-5.3l-11.2-10.9l15.5-2.3c1.9-0.3,3.6-1.5,4.5-3.3l6.9-14l6.9,14.1c0.9,1.8,2.6,3,4.5,3.3l15.5,2.3
			L189.1,117.8L189.1,117.8z"/>
		<path class="st0" d="M123.7,110.4l-16.5-2.4l-7.4-14.9c-1-2-3.1-3.3-5.4-3.3s-4.3,1.3-5.4,3.3L81.7,108l-16.5,2.4
			c-2.2,0.3-4.1,1.9-4.8,4.1s-0.1,4.5,1.5,6.1l12,11.7L71,148.7c-0.4,2.2,0.5,4.5,2.4,5.8s4.3,1.5,6.3,0.5l14.8-7.8l14.8,7.8
			c2,1.1,4.5,0.9,6.3-0.4c1.8-1.3,2.8-3.6,2.4-5.9l-2.8-16.5l12-11.7c1.6-1.6,2.2-4,1.5-6.1S126,110.7,123.7,110.4L123.7,110.4
			L123.7,110.4z M104.5,125.9c-1.4,1.4-2.1,3.3-1.7,5.3l1.3,7.6l-6.8-3.6c-1.7-0.9-3.8-0.9-5.6,0l-6.9,3.6l1.3-7.6
			c0.3-1.9-0.3-3.9-1.7-5.3l-5.5-5.4l7.7-1.1c1.9-0.3,3.6-1.5,4.5-3.3l3.4-6.9l3.4,6.9c0.9,1.8,2.6,3,4.5,3.3l7.7,1.1L104.5,125.9
			L104.5,125.9z"/>
		<path class="st0" d="M219.9,120.6l12,11.7l-2.8,16.5c-0.4,2.2,0.5,4.5,2.4,5.9c1.8,1.3,4.3,1.5,6.3,0.5l14.8-7.8l14.8,7.8
			c2,1.1,4.5,0.9,6.3-0.5s2.8-3.6,2.4-5.9l-2.8-16.5l12-11.7c1.6-1.6,2.2-3.9,1.5-6.1s-2.6-3.7-4.8-4.1l-16.5-2.4l-7.4-14.9
			c-1-2-3.1-3.3-5.4-3.3s-4.4,1.3-5.4,3.3l-7.4,14.9l-16.5,2.4c-2.2,0.3-4.1,1.9-4.8,4.1S218.3,119,219.9,120.6L219.9,120.6
			L219.9,120.6z M244.6,119.4c1.9-0.3,3.6-1.5,4.5-3.3l3.4-6.9l3.4,6.9c0.9,1.8,2.5,3,4.5,3.3l7.7,1.1l-5.5,5.4
			c-1.4,1.4-2,3.3-1.7,5.3l1.3,7.6l-6.8-3.6c-1.7-0.9-3.8-0.9-5.6,0l-6.9,3.6l1.3-7.6c0.3-1.9-0.3-3.9-1.7-5.3l-5.5-5.4L244.6,119.4
			L244.6,119.4z"/>
		<path class="st0" d="M65.8,65.8h71.7c3.3,0,6-2.7,6-6s-2.7-6-6-6H65.8c-3.3,0-6,2.7-6,6S62.5,65.8,65.8,65.8z"/>
		<path class="st0" d="M281,179.3h-71.7c-3.3,0-6,2.7-6,6s2.7,6,6,6H281c3.3,0,6-2.7,6-6S284.3,179.3,281,179.3z"/>
	</g>
</g>
</svg>
