<?xml version="1.0" encoding="utf-8"?>
<!-- Generator: Adobe Illustrator 28.1.0, SVG Export Plug-In . SVG Version: 6.00 Build 0)  -->
<svg version="1.1" id="Capa_2_00000067919153677888630960000013124034874521376157_"
	 xmlns="http://www.w3.org/2000/svg" xmlns:xlink="http://www.w3.org/1999/xlink" x="0px" y="0px" viewBox="0 0 400.7 400.7"
	 style="enable-background:new 0 0 400.7 400.7;" xml:space="preserve">
<style type="text/css">
	.st0{fill:#023629;}
</style>
<g id="Capa_2-2">
	<path class="st0" d="M349.2,400.7H51.5C23.1,400.7,0,377.6,0,349.2V51.5C0,23.1,23.1,0,51.5,0h297.6c28.4,0,51.5,23.1,51.5,51.5
		v297.6C400.7,377.6,377.6,400.7,349.2,400.7z M51.5,18C33,18,18,33,18,51.5v297.6c0,18.5,15,33.5,33.5,33.5h297.6
		c18.5,0,33.5-15,33.5-33.5V51.5c0-18.5-15-33.5-33.5-33.5H51.5z"/>
	<g id="uuid-64f69700-e28a-41d1-bac1-522b0d0739d6">
		<g>
			<path class="st0" d="M107.4,244.9h81.6c2.6,0,4.8-2.1,4.8-4.8s-2.1-4.8-4.8-4.8h-81.6c-2.6,0-4.8,2.1-4.8,4.8
				S104.8,244.9,107.4,244.9z"/>
			<path class="st0" d="M88.1,289.3h81.6c2.6,0,4.8-2.1,4.8-4.8s-2.1-4.8-4.8-4.8H88.1c-2.6,0-4.8,2.1-4.8,4.8
				S85.5,289.3,88.1,289.3z"/>
			<path class="st0" d="M184.4,327.3h-81.6c-2.6,0-4.8,2.1-4.8,4.8s2.1,4.8,4.8,4.8h81.6c2.6,0,4.8-2.1,4.8-4.8
				S187,327.3,184.4,327.3z"/>
			<path class="st0" d="M347.8,45H117.8c-3.7,0-6.7,3-6.7,6.7v159.5H87.5c-15.9,0-28.9,13-28.9,28.9c0,5.7,1.7,11.1,4.6,15.6
				c-15.7,0.3-28.4,13.1-28.4,28.9c0,13.6,9.5,25.1,22.2,28.1c-4.6,5.1-7.5,11.9-7.5,19.4c0,15.9,13,28.9,28.9,28.9h130.3
				c14.8,0,27-11.1,28.7-25.5h110.3c3.7,0,6.6-3,6.6-6.6V51.7C354.4,48,351.4,45.1,347.8,45L347.8,45L347.8,45z M341.1,58.4v45.5
				H124.5V58.4C124.5,58.4,341.1,58.4,341.1,58.4z M87.5,224.5h121.3c8.6,0,15.6,7,15.6,15.6s-7,15.6-15.6,15.6H87.5
				c-8.6,0-15.6-7-15.6-15.6S79,224.5,87.5,224.5L87.5,224.5z M208.8,211.2h-18.3c4.5-19.3,21.8-33.3,42.1-33.3
				c23.9,0,43.3,19.4,43.3,43.3s-19.4,43.3-43.3,43.3c-2.5,0-5-0.2-7.4-0.7c7.5-5.2,12.5-13.9,12.5-23.8
				C237.7,224.2,224.7,211.2,208.8,211.2L208.8,211.2L208.8,211.2z M220.3,272.6c4,1,8.1,1.5,12.3,1.5c29.1,0,52.8-23.7,52.8-52.8
				s-23.7-52.8-52.8-52.8c-25.6,0-47.1,18.1-51.8,42.8h-18.7C167,176.5,197,150,232.6,150c39.3,0,71.3,32,71.3,71.3
				s-32,71.3-71.3,71.3c-3.6,0-7.1-0.3-10.6-0.8c0.6-2.3,0.9-4.7,0.9-7.2C222.9,280.3,222,276.2,220.3,272.6L220.3,272.6
				L220.3,272.6z M48.2,284.5c0-8.6,7-15.6,15.6-15.6H194c8.6,0,15.6,7,15.6,15.6s-7,15.6-15.6,15.6H63.7
				C55.2,300.1,48.2,293.1,48.2,284.5C48.2,284.5,48.2,284.5,48.2,284.5z M208.8,347.6H78.5c-8.6,0-15.6-7-15.6-15.6
				s7-15.6,15.6-15.6h130.3c8.6,0,15.6,7,15.6,15.6S217.4,347.6,208.8,347.6L208.8,347.6z M235.9,322.1c-3.1-8.4-9.9-15-18.5-17.7
				c5,0.9,10.1,1.4,15.2,1.4c46.6,0,84.6-37.9,84.6-84.6s-37.9-84.6-84.6-84.6c-42.9,0-79,32.4-84,74.5h-24.1v-94h216.6v204.9
				L235.9,322.1L235.9,322.1L235.9,322.1z"/>
			<path class="st0" d="M136.4,94.6h78.1c2.6,0,4.8-2.1,4.8-4.8V70.4c0-2.6-2.1-4.8-4.8-4.8h-78.1c-2.6,0-4.8,2.1-4.8,4.8v19.5
				C131.7,92.5,133.8,94.6,136.4,94.6z M141.2,75.2h68.6v9.9h-68.6L141.2,75.2L141.2,75.2z"/>
			<path class="st0" d="M229.4,85.9h13.2c2.6,0,4.8-2.1,4.8-4.8s-2.1-4.8-4.8-4.8h-13.2c-2.6,0-4.8,2.1-4.8,4.8
				S226.8,85.9,229.4,85.9z"/>
			<path class="st0" d="M272.3,99.1c10.2,0,18.5-8.3,18.5-18.5s-8.3-18.5-18.5-18.5s-18.4,8.3-18.4,18.5S262.2,99.1,272.3,99.1
				C272.3,99.1,272.3,99.1,272.3,99.1z M272.3,71.7c4.9,0,9,4,9,8.9s-4,8.9-9,8.9s-9-4-9-8.9S267.4,71.7,272.3,71.7L272.3,71.7z"/>
			<path class="st0" d="M316.5,99.1c10.2,0,18.5-8.3,18.5-18.5s-8.3-18.5-18.5-18.5s-18.5,8.3-18.5,18.5S306.3,99.1,316.5,99.1z
				 M316.5,71.7c4.9,0,9,4,9,8.9s-4,8.9-9,8.9s-9-4-9-8.9S311.6,71.7,316.5,71.7z"/>
		</g>
	</g>
</g>
</svg>
