<?xml version="1.0" encoding="utf-8"?>
<!-- Generator: Adobe Illustrator 28.1.0, SVG Export Plug-In . SVG Version: 6.00 Build 0)  -->
<svg version="1.1" id="Capa_2_00000047770172144281714830000008927622546436526475_"
	 xmlns="http://www.w3.org/2000/svg" xmlns:xlink="http://www.w3.org/1999/xlink" x="0px" y="0px" viewBox="0 0 311.7 312.2"
	 style="enable-background:new 0 0 311.7 312.2;" xml:space="preserve">
<style type="text/css">
	.st0{fill:#E28412;}
</style>
<g id="Capa_1-2">
	<g>
		<polygon class="st0" points="274.8,288.9 23.2,288.9 23.2,41.1 31.2,45.7 15.6,7.6 0,45.7 7.9,41.1 7.9,304.3 274.8,304.3 
			270.2,312.2 308.4,296.6 270.2,281 		"/>
		<path class="st0" d="M43.3,272.4c1.5,1.5,3.5,2.2,5.4,2.2s3.9-0.8,5.4-2.2L277.8,48.7c3-3,3-7.8,0-10.8s-7.9-3-10.8,0L43.3,261.5
			C40.3,264.5,40.3,269.4,43.3,272.4z"/>
		<path class="st0" d="M272.1,93L102.3,262.8c-3,3-3,7.9,0,10.8c1.5,1.5,3.5,2.2,5.4,2.2s3.9-0.8,5.4-2.2L283,103.9
			c3-3,3-7.8,0-10.8S275.1,90,272.1,93z"/>
		<path class="st0" d="M282.2,156.9c-3-3-7.9-3-10.8,0L163.5,264.9c-3,3-3,7.9,0,10.8c1.5,1.5,3.5,2.2,5.4,2.2s3.9-0.8,5.4-2.2
			l107.9-107.9C285.2,164.8,285.2,159.9,282.2,156.9z"/>
		<path class="st0" d="M227,280.6c2,0,3.9-0.8,5.4-2.2l53.6-53.6c3-3,3-7.9,0-10.8c-3-3-7.9-3-10.8,0l-53.6,53.6c-3,3-3,7.9,0,10.8
			C223.1,279.9,225.1,280.7,227,280.6L227,280.6z"/>
		<path class="st0" d="M51.5,212L221.3,42.2c3-3,3-7.8,0-10.8s-7.9-3-10.8,0L40.7,201.2c-3,3-3,7.9,0,10.8c1.5,1.5,3.5,2.2,5.4,2.2
			S50,213.5,51.5,212z"/>
		<path class="st0" d="M41.4,148.1c1.5,1.5,3.5,2.2,5.4,2.2s3.9-0.8,5.4-2.2L160.2,40.2c3-3,3-7.8,0-10.8s-7.9-3-10.8,0L41.4,137.3
			C38.4,140.3,38.4,145.1,41.4,148.1z"/>
		<path class="st0" d="M43,93.3c2,0,3.9-0.8,5.4-2.2L102,37.5c3-3,3-7.9,0-10.8s-7.8-3-10.8,0L37.6,80.3c-3,3-3,7.8,0,10.8
			C39.1,92.6,41,93.3,43,93.3L43,93.3z"/>
		<rect x="296.4" y="254.2" class="st0" width="15.3" height="19.2"/>
		<rect x="296.4" y="171.5" class="st0" width="15.3" height="20.7"/>
		<rect x="296.4" y="212.8" class="st0" width="15.3" height="20.7"/>
		<rect x="296.4" y="130.2" class="st0" width="15.3" height="20.7"/>
		<rect x="296.4" y="88.8" class="st0" width="15.3" height="20.7"/>
		<rect x="296.4" y="47.5" class="st0" width="15.3" height="20.7"/>
		<path class="st0" d="M304,0h-19.2v15.3h11.5v11.5h15.3V7.7C311.7,3.4,308.3,0,304,0L304,0z"/>
		<rect x="244.4" class="st0" width="20.2" height="15.3"/>
		<rect x="204" class="st0" width="20.2" height="15.3"/>
		<rect x="123.1" class="st0" width="20.2" height="15.3"/>
		<rect x="82.7" class="st0" width="20.2" height="15.3"/>
		<rect x="163.6" class="st0" width="20.2" height="15.3"/>
		<rect x="43.3" class="st0" width="19.2" height="15.3"/>
	</g>
</g>
</svg>
