<?xml version="1.0" encoding="utf-8"?>
<!-- Generator: Adobe Illustrator 28.1.0, SVG Export Plug-In . SVG Version: 6.00 Build 0)  -->
<svg version="1.1" id="Capa_2_00000022529695249056162860000017748061171248433810_"
	 xmlns="http://www.w3.org/2000/svg" xmlns:xlink="http://www.w3.org/1999/xlink" x="0px" y="0px" viewBox="0 0 302.7 346.1"
	 style="enable-background:new 0 0 302.7 346.1;" xml:space="preserve">
<style type="text/css">
	.st0{fill:#E28412;}
</style>
<g id="Capa_2-2">
	<g>
		<path class="st0" d="M301.6,288l-42.9-85.8c14-20.7,22.3-45.7,22.3-72.6C281,58.2,222.8,0,151.4,0S21.7,58.1,21.7,129.6
			c0,26.9,8.2,51.8,22.3,72.6L1.1,288c-1.6,3.1-1.4,6.9,0.4,9.9c1.9,3,5.1,4.8,8.6,4.8h49.2L88.9,342c1.9,2.6,4.9,4.1,8.1,4.1
			c4.2,0,7.5-2.5,9.1-5.6l40.7-81.4c1.5,0,3,0.1,4.6,0.1s3,0,4.6-0.1l40.7,81.4c1.5,3.1,4.9,5.6,9.1,5.6c3.2,0,6.2-1.5,8.1-4.1
			l29.6-39.4h49.2c3.5,0,6.8-1.8,8.6-4.8C303,294.9,303.2,291.1,301.6,288L301.6,288z M95.3,316.8l-22.7-30.3
			c-1.9-2.5-4.9-4.1-8.1-4.1H26.5L58,219.4c17.9,18.6,41.2,31.8,67.4,37.1L95.3,316.8L95.3,316.8z M151.3,238.9
			C91.1,238.9,42,189.9,42,129.6S91.1,20.3,151.4,20.3c60.3,0,109.3,49.1,109.3,109.3S211.6,238.9,151.3,238.9z M238.2,282.4
			L238.2,282.4c-3.2,0-6.2,1.5-8.1,4.1l-22.7,30.3l-30.1-60.1c26.2-5.3,49.5-18.6,67.4-37.1l31.5,62.9H238.2z"/>
		<path class="st0" d="M203.1,146.4l28.3-33.8c2.2-2.7,2.9-6.3,1.9-9.6s-3.8-5.9-7.2-6.7l-42.8-10.7L160,48.2
			c-1.9-3-5.1-4.8-8.6-4.8s-6.7,1.8-8.6,4.8l-23.4,37.4L76.6,96.3c-3.4,0.8-6.1,3.4-7.2,6.7s-0.4,7,1.9,9.7l28.3,33.8l-3.1,44
			c-0.2,3.5,1.3,6.9,4.2,8.9c4.3,3.1,8.7,1.6,9.8,1.2l40.9-16.5l40.9,16.5c3.2,1.3,6.9,0.9,9.8-1.2s4.4-5.4,4.2-8.9L203.1,146.4z
			 M184.9,136.5c-1.7,2-2.5,4.6-2.3,7.2l2.2,31.9l-29.7-12c-3.3-1.3-6.2-0.6-7.6,0l-29.7,11.9l2.2-31.9c0.2-2.6-0.7-5.2-2.3-7.2
			L97.2,112l31-7.8c2.6-0.6,4.7-2.2,6.1-4.5l17-27.1l17,27.1c1.4,2.2,3.6,3.8,6.1,4.5l31,7.8L184.9,136.5L184.9,136.5z"/>
	</g>
</g>
</svg>
