<?xml version="1.0" encoding="utf-8"?>
<!-- Generator: Adobe Illustrator 28.1.0, SVG Export Plug-In . SVG Version: 6.00 Build 0)  -->
<svg version="1.1" id="Capa_2_00000109007311649874313560000002183684679316819607_"
	 xmlns="http://www.w3.org/2000/svg" xmlns:xlink="http://www.w3.org/1999/xlink" x="0px" y="0px" viewBox="0 0 368.7 368.7"
	 style="enable-background:new 0 0 368.7 368.7;" xml:space="preserve">
<style type="text/css">
	.st0{fill:#E28412;}
</style>
<g id="Capa_2-2">
	<g>
		<path class="st0" d="M22.3,138.1l162-106.4l68.4,45.2c4.4,2.9,10.1,3.2,14.8,0.7c4.7-2.5,7.6-7.4,7.6-12.7V42.5h28.8v124.6
			c0,7.9,6.5,14.4,14.4,14.4s14.4-6.4,14.4-14.4v-37.9l13.8,8.9c2.4,1.6,5.1,2.3,7.8,2.3c4.7,0,9.4-2.3,12.1-6.6
			c4.3-6.7,2.4-15.6-4.3-19.9l-29.4-19V28.1c0-8-6.5-14.4-14.4-14.4h-57.6c-7.9,0-14.4,6.4-14.4,14.4v10l-54-35.7
			c-4.8-3.2-11-3.2-15.8,0L6.5,114c-6.7,4.4-8.5,13.3-4.1,20C6.7,140.6,15.7,142.4,22.3,138.1L22.3,138.1z"/>
		<path class="st0" d="M362.1,240l-36.8-23.8c-23.1-14.9-41.6-16-67.3-16h-56.6c-20.2,0-37.3,14.1-42,33.1h-5.6
			c-10.6,0-21.6-4.9-30.3-13.5l-50.1-49c-8.2-8.1-19.1-12.5-30.7-12.4c-11.5,0.1-22.4,4.7-30.5,12.9c-16.7,17-16.5,44.4,0.5,61.1
			l65,63.9c29.4,29,68.9,44.9,111.2,44.9h112.5l45.7,25.5c2.2,1.2,4.6,1.8,7,1.8s5-0.7,7.3-2c4.4-2.6,7.1-7.3,7.1-12.4V252.1
			C368.7,247.2,366.2,242.6,362.1,240L362.1,240z M339.9,329.8l-27.5-15.4c-2.1-1.2-4.6-1.8-7-1.8H189.1c-34.6,0-67-13-91-36.6
			l-65-63.9c-5.7-5.6-5.8-14.7-0.2-20.4c2.7-2.8,6.3-4.3,10.1-4.3c0,0,0.1,0,0.1,0c3.8,0,7.4,1.5,10.1,4.1l50,49
			c14,13.8,32.5,21.7,50.5,21.7h8.4c6.9,14.9,21.9,25.2,39.2,25.2h58.4c8,0,14.4-6.5,14.4-14.4s-6.5-14.4-14.4-14.4h-58.4
			c-8,0-14.4-6.6-14.4-14.7s6.6-14.9,14.4-14.9h56.6c22.3,0,34.8,0.5,51.7,11.4l30.1,19.5V329.8L339.9,329.8z"/>
		<path class="st0" d="M151.9,97.2h14.4c4,0,7.2,3.2,7.2,7.2v14.4c0,4-3.2,7.2-7.2,7.2h-14.4c-4,0-7.2-3.2-7.2-7.2v-14.4
			C144.8,100.4,148,97.2,151.9,97.2z"/>
		<path class="st0" d="M201.6,97.2H216c4,0,7.2,3.2,7.2,7.2v14.4c0,4-3.2,7.2-7.2,7.2h-14.4c-4,0-7.2-3.2-7.2-7.2v-14.4
			C194.4,100.4,197.7,97.2,201.6,97.2z"/>
		<path class="st0" d="M201.6,147.6h14.4c4,0,7.2,3.2,7.2,7.2v14.4c0,4-3.2,7.2-7.2,7.2h-14.4c-4,0-7.2-3.2-7.2-7.2v-14.4
			C194.4,150.9,197.7,147.6,201.6,147.6z"/>
		<path class="st0" d="M151.9,147.6h14.4c4,0,7.2,3.2,7.2,7.2v14.4c0,4-3.2,7.2-7.2,7.2h-14.4c-4,0-7.2-3.2-7.2-7.2v-14.4
			C144.8,150.9,148,147.6,151.9,147.6z"/>
	</g>
</g>
</svg>
